{
  "accessors": [
    {
      "bufferView": 2,
      "componentType": 5126,
      "count": 2747,
      "max": [
        -18.578025817871094,
        20.843656539916992,
        8.267998695373535
      ],
      "min": [
        -19.456392288208008,
        19.965320587158203,
        -8.3637056350708
      ],
      "type": "VEC3"
    },
    {
      "bufferView": 2,
      "byteOffset": 32964,
      "componentType": 5126,
      "count": 2747,
      "max": [
        0.9999999403953552,
        0.9996793866157532,
        1.0
      ],
      "min": [
        -0.9999998807907104,
        -0.9999999403953552,
        -1.0
      ],
      "type": "VEC3"
    },
    {
      "bufferView": 1,
      "componentType": 5126,
      "count": 2747,
      "max": [
        0.9654810428619385,
        0.9889715313911438
      ],
      "min": [
        0.2799265384674072,
        0.011028587818145752
      ],
      "type": "VEC2"
    },
    {
      "bufferView": 0,
      "componentType": 5125,
      "count": 8460,
      "type": "SCALAR"
    },
    {
      "bufferView": 2,
      "byteOffset": 65928,
      "componentType": 5126,
      "count": 1279,
      "max": [
        -18.717761993408203,
        20.1048641204834,
        7.453061103820801
      ],
      "min": [
        -18.922534942626953,
        19.987337112426758,
        6.0395331382751465
      ],
      "type": "VEC3"
    },
    {
      "bufferView": 2,
      "byteOffset": 81276,
      "componentType": 5126,
      "count": 1279,
      "max": [
        0.5352853536605835,
        -0.844664454460144,
        0.05937332287430763
      ],
      "min": [
        0.46427908539772034,
        -0.8854832053184509,
        -0.020071564242243767
      ],
      "type": "VEC3"
    },
    {
      "bufferView": 1,
      "byteOffset": 21976,
      "componentType": 5126,
      "count": 1279,
      "max": [
        4.994452476501465,
        0.5895506739616394
      ],
      "min": [
        4.005547523498535,
        0.4104493260383606
      ],
      "type": "VEC2"
    },
    {
      "bufferView": 0,
      "byteOffset": 33840,
      "componentType": 5125,
      "count": 4056,
      "type": "SCALAR"
    },
    {
      "bufferView": 2,
      "byteOffset": 96624,
      "componentType": 5126,
      "count": 4020,
      "max": [
        -18.57292366027832,
        20.848413467407227,
        8.269740104675293
      ],
      "min": [
        -19.461341857910156,
        19.960390090942383,
        -7.483902931213379
      ],
      "type": "VEC3"
    },
    {
      "bufferView": 2,
      "byteOffset": 144864,
      "componentType": 5126,
      "count": 4020,
      "max": [
        0.9998223185539246,
        0.9998560547828674,
        1.0
      ],
      "min": [
        -0.9998729228973389,
        -0.9999997019767761,
        -1.0
      ],
      "type": "VEC3"
    },
    {
      "bufferView": 1,
      "byteOffset": 32208,
      "componentType": 5126,
      "count": 4020,
      "max": [
        0.9717998504638672,
        0.9849879741668701
      ],
      "min": [
        0.010758542455732822,
        0.01720367558300495
      ],
      "type": "VEC2"
    },
    {
      "bufferView": 1,
      "byteOffset": 64368,
      "componentType": 5126,
      "count": 4020,
      "max": [
        0.995933473110199,
        0.2819201648235321
      ],
      "min": [
        0.0,
        0.0
      ],
      "type": "VEC2"
    },
    {
      "bufferView": 0,
      "byteOffset": 50064,
      "componentType": 5125,
      "count": 21738,
      "type": "SCALAR"
    },
    {
      "bufferView": 2,
      "byteOffset": 193104,
      "componentType": 5126,
      "count": 4379,
      "max": [
        -18.755149841308594,
        20.666292190551758,
        -7.263978958129883
      ],
      "min": [
        -19.279081344604492,
        20.14264488220215,
        -8.36579418182373
      ],
      "type": "VEC3"
    },
    {
      "bufferView": 2,
      "byteOffset": 245652,
      "componentType": 5126,
      "count": 4379,
      "max": [
        0.9998164772987366,
        0.9998242259025574,
        1.0
      ],
      "min": [
        -0.9997920989990234,
        -0.9998194575309753,
        -1.0
      ],
      "type": "VEC3"
    },
    {
      "bufferView": 1,
      "byteOffset": 96528,
      "componentType": 5126,
      "count": 4379,
      "max": [
        0.9793723821640015,
        0.9794376492500305
      ],
      "min": [
        0.24790716171264648,
        0.022117003798484802
      ],
      "type": "VEC2"
    },
    {
      "bufferView": 1,
      "byteOffset": 131560,
      "componentType": 5126,
      "count": 4379,
      "max": [
        1.0,
        1.0
      ],
      "min": [
        0.0,
        0.0
      ],
      "type": "VEC2"
    },
    {
      "bufferView": 0,
      "byteOffset": 137016,
      "componentType": 5125,
      "count": 15168,
      "type": "SCALAR"
    },
    {
      "bufferView": 2,
      "byteOffset": 298200,
      "componentType": 5126,
      "count": 3595,
      "max": [
        -11.867191314697266,
        19.875581741333008,
        14.168874740600586
      ],
      "min": [
        -19.274919509887695,
        0.11409209668636322,
        -14.168688774108887
      ],
      "type": "VEC3"
    },
    {
      "bufferView": 2,
      "byteOffset": 341340,
      "componentType": 5126,
      "count": 3595,
      "max": [
        1.0,
        0.9976444244384766,
        1.0
      ],
      "min": [
        -1.0,
        -1.0,
        -1.0
      ],
      "type": "VEC3"
    },
    {
      "bufferView": 1,
      "byteOffset": 166592,
      "componentType": 5126,
      "count": 3595,
      "max": [
        0.9752529859542847,
        0.9798869490623474
      ],
      "min": [
        0.024607092142105103,
        0.261364609003067
      ],
      "type": "VEC2"
    },
    {
      "bufferView": 0,
      "byteOffset": 197688,
      "componentType": 5125,
      "count": 17133,
      "type": "SCALAR"
    },
    {
      "bufferView": 2,
      "byteOffset": 384480,
      "componentType": 5126,
      "count": 1492,
      "max": [
        -10.957901000976563,
        0.2722996473312378,
        11.793338775634766
      ],
      "min": [
        -12.115198135375977,
        -0.727906346321106,
        -11.894454956054688
      ],
      "type": "VEC3"
    },
    {
      "bufferView": 2,
      "byteOffset": 402384,
      "componentType": 5126,
      "count": 1492,
      "max": [
        0.9999803304672241,
        0.9999963641166687,
        1.0
      ],
      "min": [
        -0.9999926686286926,
        -0.9999980330467224,
        -0.9999998807907104
      ],
      "type": "VEC3"
    },
    {
      "bufferView": 1,
      "byteOffset": 195352,
      "componentType": 5126,
      "count": 1492,
      "max": [
        1.0,
        1.0
      ],
      "min": [
        0.0,
        0.0
      ],
      "type": "VEC2"
    },
    {
      "bufferView": 0,
      "byteOffset": 266220,
      "componentType": 5125,
      "count": 5709,
      "type": "SCALAR"
    },
    {
      "bufferView": 2,
      "byteOffset": 420288,
      "componentType": 5126,
      "count": 1644,
      "max": [
        -10.892742156982422,
        0.25216642022132874,
        11.944512367248535
      ],
      "min": [
        -12.180442810058594,
        -0.7529676556587219,
        -11.944513320922852
      ],
      "type": "VEC3"
    },
    {
      "bufferView": 2,
      "byteOffset": 440016,
      "componentType": 5126,
      "count": 1644,
      "max": [
        1.0,
        1.0,
        1.0
      ],
      "min": [
        -1.0,
        -1.0,
        -1.0
      ],
      "type": "VEC3"
    },
    {
      "bufferView": 3,
      "componentType": 5126,
      "count": 1644,
      "max": [
        0.9999998211860657,
        1.0,
        1.0,
        1.0
      ],
      "min": [
        -0.9986106753349304,
        -0.9992352724075317,
        -1.0,
        -1.0
      ],
      "type": "VEC4"
    },
    {
      "bufferView": 1,
      "byteOffset": 207288,
      "componentType": 5126,
      "count": 1644,
      "max": [
        0.9911500811576843,
        0.9183040857315063
      ],
      "min": [
        0.022684261202812195,
        0.02247431129217148
      ],
      "type": "VEC2"
    },
    {
      "bufferView": 1,
      "byteOffset": 220440,
      "componentType": 5126,
      "count": 1644,
      "max": [
        9.501545906066895,
        1.9651732444763184
      ],
      "min": [
        -7.78450870513916,
        -1.7666312456130981
      ],
      "type": "VEC2"
    },
    {
      "bufferView": 0,
      "byteOffset": 289056,
      "componentType": 5125,
      "count": 6003,
      "type": "SCALAR"
    },
    {
      "bufferView": 2,
      "byteOffset": 459744,
      "componentType": 5126,
      "count": 928,
      "max": [
        -11.201526641845703,
        -0.29696840047836304,
        11.737783432006836
      ],
      "min": [
        -11.869648933410645,
        -0.36683979630470276,
        11.321283340454102
      ],
      "type": "VEC3"
    },
    {
      "bufferView": 2,
      "byteOffset": 470880,
      "componentType": 5126,
      "count": 928,
      "max": [
        1.0,
        1.0,
        1.0
      ],
      "min": [
        -1.0,
        -1.0,
        -1.0
      ],
      "type": "VEC3"
    },
    {
      "bufferView": 1,
      "byteOffset": 233592,
      "componentType": 5126,
      "count": 928,
      "max": [
        0.8291561603546143,
        0.611352264881134
      ],
      "min": [
        0.638018786907196,
        0.4310151934623718
      ],
      "type": "VEC2"
    },
    {
      "bufferView": 0,
      "byteOffset": 313068,
      "componentType": 5125,
      "count": 2328,
      "type": "SCALAR"
    },
    {
      "bufferView": 2,
      "byteOffset": 482016,
      "componentType": 5126,
      "count": 4,
      "max": [
        -11.10338020324707,
        -0.19893047213554382,
        11.322037696838379
      ],
      "min": [
        -11.965940475463867,
        -0.4718886613845825,
        11.322037696838379
      ],
      "type": "VEC3"
    },
    {
      "bufferView": 2,
      "byteOffset": 482064,
      "componentType": 5126,
      "count": 4,
      "max": [
        0.0,
        0.0,
        1.0
      ],
      "min": [
        0.0,
        0.0,
        1.0
      ],
      "type": "VEC3"
    },
    {
      "bufferView": 1,
      "byteOffset": 241016,
      "componentType": 5126,
      "count": 4,
      "max": [
        0.9565535187721252,
        0.4366925358772278
      ],
      "min": [
        0.8984622955322266,
        0.40223997831344604
      ],
      "type": "VEC2"
    },
    {
      "bufferView": 0,
      "byteOffset": 322380,
      "componentType": 5125,
      "count": 6,
      "type": "SCALAR"
    },
    {
      "bufferView": 2,
      "byteOffset": 482112,
      "componentType": 5126,
      "count": 3496,
      "max": [
        -11.201518058776855,
        -0.27201271057128906,
        11.769150733947754
      ],
      "min": [
        -11.869657516479492,
        -0.3917935788631439,
        11.323138236999512
      ],
      "type": "VEC3"
    },
    {
      "bufferView": 2,
      "byteOffset": 524064,
      "componentType": 5126,
      "count": 3496,
      "max": [
        1.0,
        1.0,
        1.0
      ],
      "min": [
        -1.0,
        -1.0,
        -1.0
      ],
      "type": "VEC3"
    },
    {
      "bufferView": 1,
      "byteOffset": 241048,
      "componentType": 5126,
      "count": 3496,
      "max": [
        0.9590908288955688,
        0.6118510961532593
      ],
      "min": [
        0.517385721206665,
        0.3977892994880676
      ],
      "type": "VEC2"
    },
    {
      "bufferView": 0,
      "byteOffset": 322404,
      "componentType": 5125,
      "count": 9036,
      "type": "SCALAR"
    },
    {
      "bufferView": 2,
      "byteOffset": 566016,
      "componentType": 5126,
      "count": 423,
      "max": [
        -13.330467224121094,
        11.117507934570313,
        -12.815150260925293
      ],
      "min": [
        -13.999432563781738,
        10.049662590026855,
        -12.998262405395508
      ],
      "type": "VEC3"
    },
    {
      "bufferView": 2,
      "byteOffset": 571092,
      "componentType": 5126,
      "count": 423,
      "max": [
        0.9979351758956909,
        0.9941633939743042,
        0.8899929523468018
      ],
      "min": [
        -0.06692811101675034,
        -0.5531995892524719,
        -0.890178382396698
      ],
      "type": "VEC3"
    },
    {
      "bufferView": 1,
      "byteOffset": 269016,
      "componentType": 5126,
      "count": 423,
      "max": [
        0.5456267595291138,
        0.5936505198478699
      ],
      "min": [
        0.537968635559082,
        0.5684283375740051
      ],
      "type": "VEC2"
    },
    {
      "bufferView": 0,
      "byteOffset": 358548,
      "componentType": 5125,
      "count": 2340,
      "type": "SCALAR"
    },
    {
      "bufferView": 2,
      "byteOffset": 576168,
      "componentType": 5126,
      "count": 432,
      "max": [
        -13.315926551818848,
        11.184925079345703,
        -12.760519981384277
      ],
      "min": [
        -14.04076862335205,
        9.994510650634766,
        -13.05263614654541
      ],
      "type": "VEC3"
    },
    {
      "bufferView": 2,
      "byteOffset": 581352,
      "componentType": 5126,
      "count": 432,
      "max": [
        0.8653058409690857,
        0.8776194453239441,
        0.9914817810058594
      ],
      "min": [
        -0.9420357942581177,
        -0.9931473731994629,
        -0.9914811849594116
      ],
      "type": "VEC3"
    },
    {
      "bufferView": 1,
      "byteOffset": 272400,
      "componentType": 5126,
      "count": 432,
      "max": [
        0.5349934697151184,
        0.6058971881866455
      ],
      "min": [
        0.521483838558197,
        0.5641046166419983
      ],
      "type": "VEC2"
    },
    {
      "bufferView": 0,
      "byteOffset": 367908,
      "componentType": 5125,
      "count": 1728,
      "type": "SCALAR"
    },
    {
      "bufferView": 2,
      "byteOffset": 586536,
      "componentType": 5126,
      "count": 1979,
      "max": [
        -11.875181198120117,
        19.88532066345215,
        14.118669509887695
      ],
      "min": [
        -19.206857681274414,
        0.16379502415657043,
        -14.11866569519043
      ],
      "type": "VEC3"
    },
    {
      "bufferView": 2,
      "byteOffset": 610284,
      "componentType": 5126,
      "count": 1979,
      "max": [
        1.0,
        0.9999979138374329,
        1.0
      ],
      "min": [
        -0.9431631565093994,
        -0.9999870657920837,
        -1.0
      ],
      "type": "VEC3"
    },
    {
      "bufferView": 3,
      "byteOffset": 26304,
      "componentType": 5126,
      "count": 1979,
      "max": [
        0.9997978210449219,
        0.994694173336029,
        0.17403660714626312,
        1.0
      ],
      "min": [
        -0.9996493458747864,
        -0.9999768137931824,
        -0.999991238117218,
        -1.0
      ],
      "type": "VEC4"
    },
    {
      "bufferView": 1,
      "byteOffset": 275856,
      "componentType": 5126,
      "count": 1979,
      "max": [
        0.9950365424156189,
        0.9940249919891357
      ],
      "min": [
        0.005087077617645264,
        0.22679103910923004
      ],
      "type": "VEC2"
    },
    {
      "bufferView": 1,
      "byteOffset": 291688,
      "componentType": 5126,
      "count": 1979,
      "max": [
        4.080127239227295,
        2.2047080993652344
      ],
      "min": [
        -1.5074076652526855,
        -0.4047898054122925
      ],
      "type": "VEC2"
    },
    {
      "bufferView": 0,
      "byteOffset": 374820,
      "componentType": 5125,
      "count": 10311,
      "type": "SCALAR"
    },
    {
      "bufferView": 2,
      "byteOffset": 634032,
      "componentType": 5126,
      "count": 17852,
      "max": [
        2.976877212524414,
        -0.34196141362190247,
        13.46636962890625
      ],
      "min": [
        -7.040270805358887,
        -0.48845914006233215,
        -13.466994285583496
      ],
      "type": "VEC3"
    },
    {
      "bufferView": 2,
      "byteOffset": 848256,
      "componentType": 5126,
      "count": 17852,
      "max": [
        0.9997808337211609,
        1.0,
        0.9997522830963135
      ],
      "min": [
        -0.9997706413269043,
        0.02093915082514286,
        -0.9997562766075134
      ],
      "type": "VEC3"
    },
    {
      "bufferView": 3,
      "byteOffset": 57968,
      "componentType": 5126,
      "count": 17852,
      "max": [
        1.0,
        0.9997808337211609,
        1.0,
        1.0
      ],
      "min": [
        -1.0,
        -0.9997805953025818,
        -1.0,
        1.0
      ],
      "type": "VEC4"
    },
    {
      "bufferView": 1,
      "byteOffset": 307520,
      "componentType": 5126,
      "count": 17852,
      "max": [
        0.9845280051231384,
        0.986856997013092
      ],
      "min": [
        0.016148999333381653,
        0.018704000860452652
      ],
      "type": "VEC2"
    },
    {
      "bufferView": 1,
      "byteOffset": 450336,
      "componentType": 5126,
      "count": 17852,
      "max": [
        0.93482506275177,
        0.47110724449157715
      ],
      "min": [
        0.0,
        0.0
      ],
      "type": "VEC2"
    },
    {
      "bufferView": 1,
      "byteOffset": 593152,
      "componentType": 5126,
      "count": 17852,
      "max": [
        0.9845280051231384,
        0.986856997013092
      ],
      "min": [
        0.016148999333381653,
        0.018704000860452652
      ],
      "type": "VEC2"
    },
    {
      "bufferView": 1,
      "byteOffset": 735968,
      "componentType": 5126,
      "count": 17852,
      "max": [
        0.9845280051231384,
        0.986856997013092
      ],
      "min": [
        0.016148999333381653,
        0.018704000860452652
      ],
      "type": "VEC2"
    },
    {
      "bufferView": 0,
      "byteOffset": 416064,
      "componentType": 5125,
      "count": 88032,
      "type": "SCALAR"
    },
    {
      "bufferView": 2,
      "byteOffset": 1062480,
      "componentType": 5126,
      "count": 896,
      "max": [
        3.5346128940582275,
        -0.30444100499153137,
        13.842964172363281
      ],
      "min": [
        -7.41533899307251,
        -0.32440483570098877,
        -13.842960357666016
      ],
      "type": "VEC3"
    },
    {
      "bufferView": 2,
      "byteOffset": 1073232,
      "componentType": 5126,
      "count": 896,
      "max": [
        0.8400146961212158,
        0.9999768733978271,
        0.8694663047790527
      ],
      "min": [
        -0.8421664237976074,
        0.49399179220199585,
        -0.850633442401886
      ],
      "type": "VEC3"
    },
    {
      "bufferView": 1,
      "byteOffset": 878784,
      "componentType": 5126,
      "count": 896,
      "max": [
        0.9477944374084473,
        0.8605203032493591
      ],
      "min": [
        0.05093812942504883,
        0.5012953281402588
      ],
      "type": "VEC2"
    },
    {
      "bufferView": 0,
      "byteOffset": 768192,
      "componentType": 5125,
      "count": 4704,
      "type": "SCALAR"
    },
    {
      "bufferView": 2,
      "byteOffset": 1083984,
      "componentType": 5126,
      "count": 613,
      "max": [
        -10.80195140838623,
        -0.001992580248042941,
        5.857748031616211
      ],
      "min": [
        -11.627650260925293,
        -0.6736587285995483,
        -5.857714653015137
      ],
      "type": "VEC3"
    },
    {
      "bufferView": 2,
      "byteOffset": 1091340,
      "componentType": 5126,
      "count": 613,
      "max": [
        0.9992426633834839,
        0.9999997019767761,
        1.0
      ],
      "min": [
        -1.0,
        -0.9999989867210388,
        -1.0
      ],
      "type": "VEC3"
    },
    {
      "bufferView": 3,
      "byteOffset": 343600,
      "componentType": 5126,
      "count": 613,
      "max": [
        0.9998673796653748,
        0.9951329231262207,
        1.0,
        1.0
      ],
      "min": [
        -0.7476945519447327,
        -0.7217660546302795,
        -1.0,
        -1.0
      ],
      "type": "VEC4"
    },
    {
      "bufferView": 1,
      "byteOffset": 885952,
      "componentType": 5126,
      "count": 613,
      "max": [
        0.9877257347106934,
        0.3744615912437439
      ],
      "min": [
        0.5247555375099182,
        0.012528061866760254
      ],
      "type": "VEC2"
    },
    {
      "bufferView": 1,
      "byteOffset": 890856,
      "componentType": 5126,
      "count": 613,
      "max": [
        3.321155071258545,
        1.040134310722351
      ],
      "min": [
        -1.8494200706481934,
        -0.6876970529556274
      ],
      "type": "VEC2"
    },
    {
      "bufferView": 0,
      "byteOffset": 787008,
      "componentType": 5125,
      "count": 2550,
      "type": "SCALAR"
    },
    {
      "bufferView": 2,
      "byteOffset": 1098696,
      "componentType": 5126,
      "count": 1096,
      "max": [
        10.821836471557617,
        -0.6737638115882874,
        14.168776512145996
      ],
      "min": [
        -10.852298736572266,
        -0.8035246729850769,
        -14.16877269744873
      ],
      "type": "VEC3"
    },
    {
      "bufferView": 2,
      "byteOffset": 1111848,
      "componentType": 5126,
      "count": 1096,
      "max": [
        1.0,
        1.0,
        1.0
      ],
      "min": [
        -1.0,
        -1.0,
        -1.0
      ],
      "type": "VEC3"
    },
    {
      "bufferView": 1,
      "byteOffset": 895760,
      "componentType": 5126,
      "count": 1096,
      "max": [
        0.4893096685409546,
        0.6136738061904907
      ],
      "min": [
        0.020705759525299072,
        0.2505028247833252
      ],
      "type": "VEC2"
    },
    {
      "bufferView": 0,
      "byteOffset": 797208,
      "componentType": 5125,
      "count": 4806,
      "type": "SCALAR"
    },
    {
      "bufferView": 2,
      "byteOffset": 1125000,
      "componentType": 5126,
      "count": 1542,
      "max": [
        0.8473402261734009,
        -0.34459906816482544,
        11.036110877990723
      ],
      "min": [
        -5.714201927185059,
        -0.3544500768184662,
        -11.026564598083496
      ],
      "type": "VEC3"
    },
    {
      "bufferView": 2,
      "byteOffset": 1143504,
      "componentType": 5126,
      "count": 1542,
      "max": [
        0.05429388955235481,
        1.0,
        0.02025851607322693
      ],
      "min": [
        -0.05466222018003464,
        0.9985048770904541,
        -0.022124676033854485
      ],
      "type": "VEC3"
    },
    {
      "bufferView": 1,
      "byteOffset": 904528,
      "componentType": 5126,
      "count": 1542,
      "max": [
        0.7073090672492981,
        0.21392250061035156
      ],
      "min": [
        0.4765971601009369,
        0.036255136132240295
      ],
      "type": "VEC2"
    },
    {
      "bufferView": 0,
      "byteOffset": 816432,
      "componentType": 5125,
      "count": 4437,
      "type": "SCALAR"
    },
    {
      "bufferView": 2,
      "byteOffset": 1162008,
      "componentType": 5126,
      "count": 6324,
      "max": [
        2.749803304672241,
        -0.3406555950641632,
        13.19430160522461
      ],
      "min": [
        -6.830005168914795,
        -0.3406555950641632,
        -13.183287620544434
      ],
      "type": "VEC3"
    },
    {
      "bufferView": 2,
      "byteOffset": 1237896,
      "componentType": 5126,
      "count": 6324,
      "max": [
        0.0,
        1.0,
        0.0
      ],
      "min": [
        0.0,
        0.9999999403953552,
        0.0
      ],
      "type": "VEC3"
    },
    {
      "bufferView": 1,
      "byteOffset": 916864,
      "componentType": 5126,
      "count": 6324,
      "max": [
        0.7144063115119934,
        0.2279454469680786
      ],
      "min": [
        0.4525485336780548,
        0.006911925971508026
      ],
      "type": "VEC2"
    },
    {
      "bufferView": 0,
      "byteOffset": 834180,
      "componentType": 5125,
      "count": 18678,
      "type": "SCALAR"
    },
    {
      "bufferView": 2,
      "byteOffset": 1313784,
      "componentType": 5126,
      "count": 852,
      "max": [
        0.5194612741470337,
        -0.354628324508667,
        10.145040512084961
      ],
      "min": [
        -3.5668654441833496,
        -0.354628324508667,
        -7.281292915344238
      ],
      "type": "VEC3"
    },
    {
      "bufferView": 2,
      "byteOffset": 1324008,
      "componentType": 5126,
      "count": 852,
      "max": [
        0.0,
        1.0,
        0.0
      ],
      "min": [
        0.0,
        0.9999999403953552,
        0.0
      ],
      "type": "VEC3"
    },
    {
      "bufferView": 1,
      "byteOffset": 967456,
      "componentType": 5126,
      "count": 852,
      "max": [
        0.7239969968795776,
        0.13510635495185852
      ],
      "min": [
        0.5330093502998352,
        0.0668567568063736
      ],
      "type": "VEC2"
    },
    {
      "bufferView": 0,
      "byteOffset": 908892,
      "componentType": 5125,
      "count": 2448,
      "type": "SCALAR"
    },
    {
      "bufferView": 2,
      "byteOffset": 1334232,
      "componentType": 5126,
      "count": 697,
      "max": [
        3.5195629596710205,
        -0.3240445852279663,
        13.827861785888672
      ],
      "min": [
        -7.400349140167236,
        -0.4882379174232483,
        -13.827796936035156
      ],
      "type": "VEC3"
    },
    {
      "bufferView": 2,
      "byteOffset": 1342596,
      "componentType": 5126,
      "count": 697,
      "max": [
        0.517497718334198,
        1.0,
        0.4683113396167755
      ],
      "min": [
        -0.4770798981189728,
        -1.0,
        -0.5074425935745239
      ],
      "type": "VEC3"
    },
    {
      "bufferView": 1,
      "byteOffset": 974272,
      "componentType": 5126,
      "count": 697,
      "max": [
        0.9820386171340942,
        0.21534880995750427
      ],
      "min": [
        0.059780217707157135,
        0.11838095635175705
      ],
      "type": "VEC2"
    },
    {
      "bufferView": 0,
      "byteOffset": 918684,
      "componentType": 5125,
      "count": 2112,
      "type": "SCALAR"
    },
    {
      "bufferView": 2,
      "byteOffset": 1350960,
      "componentType": 5126,
      "count": 1014,
      "max": [
        10.771903038024902,
        -0.324404776096344,
        14.118675231933594
      ],
      "min": [
        -10.802366256713867,
        -0.6737638711929321,
        -14.118669509887695
      ],
      "type": "VEC3"
    },
    {
      "bufferView": 2,
      "byteOffset": 1363128,
      "componentType": 5126,
      "count": 1014,
      "max": [
        1.0,
        1.0,
        1.0
      ],
      "min": [
        -1.0,
        -0.00012736664211843163,
        -1.0
      ],
      "type": "VEC3"
    },
    {
      "bufferView": 3,
      "byteOffset": 353408,
      "componentType": 5126,
      "count": 1014,
      "max": [
        0.48673635721206665,
        0.9999968409538269,
        3.3111115044448525e-05,
        1.0
      ],
      "min": [
        -0.49673697352409363,
        -1.0,
        -1.0,
        1.0
      ],
      "type": "VEC4"
    },
    {
      "bufferView": 1,
      "byteOffset": 979848,
      "componentType": 5126,
      "count": 1014,
      "max": [
        0.9926739931106567,
        0.9952060580253601
      ],
      "min": [
        0.007326006889343262,
        0.23369672894477844
      ],
      "type": "VEC2"
    },
    {
      "bufferView": 1,
      "byteOffset": 987960,
      "componentType": 5126,
      "count": 1014,
      "max": [
        14.945123672485352,
        11.778117179870605
      ],
      "min": [
        -13.945123672485352,
        -10.549215316772461
      ],
      "type": "VEC2"
    },
    {
      "bufferView": 0,
      "byteOffset": 927132,
      "componentType": 5125,
      "count": 4968,
      "type": "SCALAR"
    },
    {
      "bufferView": 2,
      "byteOffset": 1375296,
      "componentType": 5126,
      "count": 9462,
      "max": [
        3.419764280319214,
        -0.3244040310382843,
        13.727718353271484
      ],
      "min": [
        -7.300489902496338,
        -0.5213859677314758,
        -13.727713584899902
      ],
      "type": "VEC3"
    },
    {
      "bufferView": 2,
      "byteOffset": 1488840,
      "componentType": 5126,
      "count": 9462,
      "max": [
        1.0,
        1.0,
        1.0
      ],
      "min": [
        -1.0,
        -1.0,
        -1.0
      ],
      "type": "VEC3"
    },
    {
      "bufferView": 3,
      "byteOffset": 369632,
      "componentType": 5126,
      "count": 9462,
      "max": [
        0.575804591178894,
        1.0,
        0.007409897167235613,
        1.0
      ],
      "min": [
        -0.5126660466194153,
        -1.0,
        -1.0,
        -1.0
      ],
      "type": "VEC4"
    },
    {
      "bufferView": 1,
      "byteOffset": 996072,
      "componentType": 5126,
      "count": 9462,
      "max": [
        0.9342080354690552,
        0.8486267328262329
      ],
      "min": [
        0.06828439235687256,
        0.513668417930603
      ],
      "type": "VEC2"
    },
    {
      "bufferView": 1,
      "byteOffset": 1071768,
      "componentType": 5126,
      "count": 9462,
      "max": [
        14.427326202392578,
        7.8833327293396
      ],
      "min": [
        -13.42483139038086,
        -2.890493392944336
      ],
      "type": "VEC2"
    },
    {
      "bufferView": 0,
      "byteOffset": 947004,
      "componentType": 5125,
      "count": 32244,
      "type": "SCALAR"
    },
    {
      "bufferView": 2,
      "byteOffset": 1602384,
      "componentType": 5126,
      "count": 512,
      "max": [
        10.44304370880127,
        -0.33146288990974426,
        5.619255065917969
      ],
      "min": [
        3.7873709201812744,
        -0.39487409591674805,
        -5.619254112243652
      ],
      "type": "VEC3"
    },
    {
      "bufferView": 2,
      "byteOffset": 1608528,
      "componentType": 5126,
      "count": 512,
      "max": [
        1.0,
        1.0,
        1.0
      ],
      "min": [
        -1.0,
        -9.495467384112999e-05,
        -1.0
      ],
      "type": "VEC3"
    },
    {
      "bufferView": 3,
      "byteOffset": 521024,
      "componentType": 5126,
      "count": 512,
      "max": [
        0.6107141375541687,
        0.9999999403953552,
        0.9999911189079285,
        1.0
      ],
      "min": [
        -0.6075034737586975,
        -0.999999463558197,
        -1.0,
        1.0
      ],
      "type": "VEC4"
    },
    {
      "bufferView": 1,
      "byteOffset": 1147464,
      "componentType": 5126,
      "count": 512,
      "max": [
        0.6716410517692566,
        0.46616610884666443
      ],
      "min": [
        0.03642871230840683,
        0.009016916155815125
      ],
      "type": "VEC2"
    },
    {
      "bufferView": 1,
      "byteOffset": 1151560,
      "componentType": 5126,
      "count": 512,
      "max": [
        6.048164367675781,
        -3.2942421436309814
      ],
      "min": [
        -5.050285339355469,
        -9.813358306884766
      ],
      "type": "VEC2"
    },
    {
      "bufferView": 0,
      "byteOffset": 1075980,
      "componentType": 5125,
      "count": 1698,
      "type": "SCALAR"
    },
    {
      "bufferView": 2,
      "byteOffset": 1614672,
      "componentType": 5126,
      "count": 33,
      "max": [
        -17.78199577331543,
        17.60886001586914,
        11.402576446533203
      ],
      "min": [
        -17.879243850708008,
        17.440513610839844,
        11.20727825164795
      ],
      "type": "VEC3"
    },
    {
      "bufferView": 2,
      "byteOffset": 1615068,
      "componentType": 5126,
      "count": 33,
      "max": [
        -0.865881085395813,
        -0.5001575946807861,
        5.666234210366383e-05
      ],
      "min": [
        -0.8659343719482422,
        -0.5002500414848328,
        -6.856635445728898e-05
      ],
      "type": "VEC3"
    },
    {
      "bufferView": 3,
      "byteOffset": 529216,
      "componentType": 5126,
      "count": 33,
      "max": [
        0.35142606496810913,
        -0.6082887649536133,
        0.7116783857345581,
        1.0
      ],
      "min": [
        0.3513661026954651,
        -0.6083632707595825,
        0.7116283178329468,
        1.0
      ],
      "type": "VEC4"
    },
    {
      "bufferView": 1,
      "byteOffset": 1155656,
      "componentType": 5126,
      "count": 33,
      "max": [
        0.9251185655593872,
        0.9249967336654663
      ],
      "min": [
        0.07418942451477051,
        0.07454955577850342
      ],
      "type": "VEC2"
    },
    {
      "bufferView": 0,
      "byteOffset": 1082772,
      "componentType": 5125,
      "count": 96,
      "type": "SCALAR"
    },
    {
      "bufferView": 2,
      "byteOffset": 1615464,
      "componentType": 5126,
      "count": 361,
      "max": [
        -17.58997917175293,
        17.821060180664063,
        12.374838829040527
      ],
      "min": [
        -17.932498931884766,
        17.3161678314209,
        11.826836585998535
      ],
      "type": "VEC3"
    },
    {
      "bufferView": 2,
      "byteOffset": 1619796,
      "componentType": 5126,
      "count": 361,
      "max": [
        0.3610655665397644,
        0.7792375087738037,
        0.9880809783935547
      ],
      "min": [
        -0.8668320775032043,
        -0.9325404763221741,
        -0.9880818724632263
      ],
      "type": "VEC3"
    },
    {
      "bufferView": 3,
      "byteOffset": 529744,
      "componentType": 5126,
      "count": 361,
      "max": [
        0.9998829960823059,
        0.36106377840042114,
        0.9361534714698792,
        1.0
      ],
      "min": [
        -0.7792336940765381,
        -0.9994579553604126,
        -0.925906777381897,
        1.0
      ],
      "type": "VEC4"
    },
    {
      "bufferView": 1,
      "byteOffset": 1155920,
      "componentType": 5126,
      "count": 361,
      "max": [
        1.2503401041030884,
        0.22153949737548828
      ],
      "min": [
        1.1143237352371216,
        0.12002730369567871
      ],
      "type": "VEC2"
    },
    {
      "bufferView": 1,
      "byteOffset": 1158808,
      "componentType": 5126,
      "count": 361,
      "max": [
        0.9595434665679932,
        0.9552542567253113
      ],
      "min": [
        0.045096755027770996,
        0.044694751501083374
      ],
      "type": "VEC2"
    },
    {
      "bufferView": 0,
      "byteOffset": 1083156,
      "componentType": 5125,
      "count": 1728,
      "type": "SCALAR"
    },
    {
      "bufferView": 2,
      "byteOffset": 1624128,
      "componentType": 5126,
      "count": 174,
      "max": [
        -12.934344291687012,
        11.819825172424316,
        2.049187421798706
      ],
      "min": [
        -14.357552528381348,
        9.35605525970459,
        -1.4585669040679932
      ],
      "type": "VEC3"
    },
    {
      "bufferView": 2,
      "byteOffset": 1626216,
      "componentType": 5126,
      "count": 174,
      "max": [
        0.8658813238143921,
        0.500249445438385,
        1.4319883121061139e-05
      ],
      "min": [
        -0.8659180998802185,
        -0.5002115964889526,
        -1.2341897672740743e-05
      ],
      "type": "VEC3"
    },
    {
      "bufferView": 1,
      "byteOffset": 1161696,
      "componentType": 5126,
      "count": 174,
      "max": [
        5.461488246917725,
        3.4130070209503174
      ],
      "min": [
        2.617640733718872,
        -0.2638019919395447
      ],
      "type": "VEC2"
    },
    {
      "bufferView": 0,
      "byteOffset": 1090068,
      "componentType": 5125,
      "count": 510,
      "type": "SCALAR"
    },
    {
      "bufferView": 2,
      "byteOffset": 1628304,
      "componentType": 5126,
      "count": 4820,
      "max": [
        -12.902070045471191,
        11.908689498901367,
        -10.23289680480957
      ],
      "min": [
        -14.409144401550293,
        9.299734115600586,
        -11.380858421325684
      ],
      "type": "VEC3"
    },
    {
      "bufferView": 2,
      "byteOffset": 1686144,
      "componentType": 5126,
      "count": 4820,
      "max": [
        0.8658228516578674,
        0.5006291270256042,
        0.0050408001989126205
      ],
      "min": [
        -0.868326723575592,
        -0.5066896080970764,
        -0.008150748908519745
      ],
      "type": "VEC3"
    },
    {
      "bufferView": 3,
      "byteOffset": 535520,
      "componentType": 5126,
      "count": 4820,
      "max": [
        0.5066894888877869,
        -0.8621286749839783,
        0.0046317861415445805,
        1.0
      ],
      "min": [
        0.49598780274391174,
        -0.8683292865753174,
        -0.017183249816298485,
        -1.0
      ],
      "type": "VEC4"
    },
    {
      "bufferView": 1,
      "byteOffset": 1163088,
      "componentType": 5126,
      "count": 4820,
      "max": [
        0.9914034008979797,
        0.8286393880844116
      ],
      "min": [
        0.006544888019561768,
        0.265926718711853
      ],
      "type": "VEC2"
    },
    {
      "bufferView": 0,
      "byteOffset": 1092108,
      "componentType": 5125,
      "count": 14112,
      "type": "SCALAR"
    },
    {
      "bufferView": 2,
      "byteOffset": 1743984,
      "componentType": 5126,
      "count": 9315,
      "max": [
        -7.855703830718994,
        20.15060043334961,
        14.109068870544434
      ],
      "min": [
        -19.005937576293945,
        1.3168880939483643,
        -14.109046936035156
      ],
      "type": "VEC3"
    },
    {
      "bufferView": 2,
      "byteOffset": 1855764,
      "componentType": 5126,
      "count": 9315,
      "max": [
        0.9987567663192749,
        0.9999995231628418,
        1.0
      ],
      "min": [
        -0.9998658299446106,
        -0.9998052716255188,
        -1.0
      ],
      "type": "VEC3"
    },
    {
      "bufferView": 3,
      "byteOffset": 612640,
      "componentType": 5126,
      "count": 9315,
      "max": [
        0.9994056224822998,
        0.9985397458076477,
        0.9999377727508545,
        1.0
      ],
      "min": [
        -0.9999948143959045,
        -0.9998411536216736,
        -1.0,
        -1.0
      ],
      "type": "VEC4"
    },
    {
      "bufferView": 1,
      "byteOffset": 1201648,
      "componentType": 5126,
      "count": 9315,
      "max": [
        0.9931588768959045,
        0.99949711561203
      ],
      "min": [
        0.0004506496770773083,
        0.0004994545597583055
      ],
      "type": "VEC2"
    },
    {
      "bufferView": 1,
      "byteOffset": 1276168,
      "componentType": 5126,
      "count": 9315,
      "max": [
        15.659815788269043,
        37.039695739746094
      ],
      "min": [
        -10.398469924926758,
        -24.331588745117188
      ],
      "type": "VEC2"
    },
    {
      "bufferView": 0,
      "byteOffset": 1148556,
      "componentType": 5125,
      "count": 43464,
      "type": "SCALAR"
    },
    {
      "bufferView": 2,
      "byteOffset": 1967544,
      "componentType": 5126,
      "count": 2337,
      "max": [
        -9.704042434692383,
        19.79752540588379,
        14.00139045715332
      ],
      "min": [
        -18.405851364135742,
        4.352499485015869,
        -14.011688232421875
      ],
      "type": "VEC3"
    },
    {
      "bufferView": 2,
      "byteOffset": 1995588,
      "componentType": 5126,
      "count": 2337,
      "max": [
        0.8660409450531006,
        0.5004966259002686,
        1.0
      ],
      "min": [
        -0.00015181658091023564,
        -0.00018629398255143315,
        -1.0
      ],
      "type": "VEC3"
    },
    {
      "bufferView": 3,
      "byteOffset": 761680,
      "componentType": 5126,
      "count": 2337,
      "max": [
        0.8662328720092773,
        0.49997586011886597,
        9.544868225930259e-05,
        1.0
      ],
      "min": [
        -0.00016501668142154813,
        -0.0003073814732488245,
        -1.0,
        -1.0
      ],
      "type": "VEC4"
    },
    {
      "bufferView": 1,
      "byteOffset": 1350688,
      "componentType": 5126,
      "count": 2337,
      "max": [
        1.0016651153564453,
        0.9871405363082886
      ],
      "min": [
        0.0105190584436059,
        0.013283461332321167
      ],
      "type": "VEC2"
    },
    {
      "bufferView": 0,
      "byteOffset": 1322412,
      "componentType": 5125,
      "count": 6840,
      "type": "SCALAR"
    },
    {
      "bufferView": 2,
      "byteOffset": 2023632,
      "componentType": 5126,
      "count": 236,
      "max": [
        -17.603614807128906,
        17.8482723236084,
        12.435842514038086
      ],
      "min": [
        -17.994909286499023,
        17.23790168762207,
        11.765832901000977
      ],
      "type": "VEC3"
    },
    {
      "bufferView": 2,
      "byteOffset": 2026464,
      "componentType": 5126,
      "count": 236,
      "max": [
        0.4997330904006958,
        0.8660045862197876,
        0.9998463988304138
      ],
      "min": [
        -0.9660111665725708,
        -0.9391268491744995,
        -0.9998463988304138
      ],
      "type": "VEC3"
    },
    {
      "bufferView": 3,
      "byteOffset": 799072,
      "componentType": 5126,
      "count": 236,
      "max": [
        0.9489747285842896,
        0.5146065354347229,
        0.6502794027328491,
        1.0
      ],
      "min": [
        -0.8713337182998657,
        -0.9929990768432617,
        -0.34513771533966064,
        1.0
      ],
      "type": "VEC4"
    },
    {
      "bufferView": 1,
      "byteOffset": 1369384,
      "componentType": 5126,
      "count": 236,
      "max": [
        0.8943952918052673,
        0.9044373035430908
      ],
      "min": [
        0.10406076908111572,
        0.11410316824913025
      ],
      "type": "VEC2"
    },
    {
      "bufferView": 0,
      "byteOffset": 1349772,
      "componentType": 5125,
      "count": 900,
      "type": "SCALAR"
    },
    {
      "bufferView": 2,
      "byteOffset": 2029296,
      "componentType": 5126,
      "count": 87,
      "max": [
        -13.295992851257324,
        11.215269088745117,
        -12.732421875
      ],
      "min": [
        -13.995769500732422,
        10.003859519958496,
        -13.080551147460938
      ],
      "type": "VEC3"
    },
    {
      "bufferView": 2,
      "byteOffset": 2030340,
      "componentType": 5126,
      "count": 87,
      "max": [
        -0.865903913974762,
        -0.500186562538147,
        1.3867265806766227e-05
      ],
      "min": [
        -0.8659176826477051,
        -0.5002104640007019,
        -1.3450669030135032e-05
      ],
      "type": "VEC3"
    },
    {
      "bufferView": 3,
      "byteOffset": 802848,
      "componentType": 5126,
      "count": 87,
      "max": [
        0.35311466455459595,
        -0.611052393913269,
        -0.7082756161689758,
        1.0
      ],
      "min": [
        0.35297226905822754,
        -0.611280620098114,
        -0.7085307836532593,
        1.0
      ],
      "type": "VEC4"
    },
    {
      "bufferView": 1,
      "byteOffset": 1371272,
      "componentType": 5126,
      "count": 87,
      "max": [
        0.6881659030914307,
        0.7204587459564209
      ],
      "min": [
        0.3448082208633423,
        0.3771514296531677
      ],
      "type": "VEC2"
    },
    {
      "bufferView": 0,
      "byteOffset": 1353372,
      "componentType": 5125,
      "count": 252,
      "type": "SCALAR"
    },
    {
      "bufferView": 2,
      "byteOffset": 2031384,
      "componentType": 5126,
      "count": 105,
      "max": [
        -8.25295352935791,
        19.422452926635742,
        13.237874031066895
      ],
      "min": [
        -18.142383575439453,
        2.3024790287017822,
        -13.23801040649414
      ],
      "type": "VEC3"
    },
    {
      "bufferView": 2,
      "byteOffset": 2032644,
      "componentType": 5126,
      "count": 105,
      "max": [
        0.8659182786941528,
        0.5002093315124512,
        1.0891060810536146e-05
      ],
      "min": [
        0.8659044504165649,
        0.5001856088638306,
        -9.553948075335938e-06
      ],
      "type": "VEC3"
    },
    {
      "bufferView": 1,
      "byteOffset": 1371968,
      "componentType": 5126,
      "count": 105,
      "max": [
        0.999500036239624,
        0.999500036239624
      ],
      "min": [
        0.0004999935626983643,
        0.0004999935626983643
      ],
      "type": "VEC2"
    },
    {
      "bufferView": 0,
      "byteOffset": 1354380,
      "componentType": 5125,
      "count": 312,
      "type": "SCALAR"
    },
    {
      "bufferView": 2,
      "byteOffset": 2033904,
      "componentType": 5126,
      "count": 9791,
      "max": [
        -9.713675498962402,
        20.13280487060547,
        14.149063110351563
      ],
      "min": [
        -18.94100570678711,
        4.362773418426514,
        -14.109044075012207
      ],
      "type": "VEC3"
    },
    {
      "bufferView": 2,
      "byteOffset": 2151396,
      "componentType": 5126,
      "count": 9791,
      "max": [
        0.9995850920677185,
        0.9999999403953552,
        1.0
      ],
      "min": [
        -0.9999986290931702,
        -0.999999463558197,
        -0.9999992847442627
      ],
      "type": "VEC3"
    },
    {
      "bufferView": 3,
      "byteOffset": 804240,
      "componentType": 5126,
      "count": 9791,
      "max": [
        0.999468982219696,
        0.9994685053825378,
        0.9999996423721313,
        1.0
      ],
      "min": [
        -0.9995642900466919,
        -0.9995957016944885,
        -1.0,
        1.0
      ],
      "type": "VEC4"
    },
    {
      "bufferView": 1,
      "byteOffset": 1372808,
      "componentType": 5126,
      "count": 9791,
      "max": [
        0.9965298175811768,
        0.9961549043655396
      ],
      "min": [
        0.003550854977220297,
        0.0023855098988860846
      ],
      "type": "VEC2"
    },
    {
      "bufferView": 1,
      "byteOffset": 1451136,
      "componentType": 5126,
      "count": 9791,
      "max": [
        27.995960235595703,
        23.863746643066406
      ],
      "min": [
        5.5120439529418945,
        -5.8205246925354
      ],
      "type": "VEC2"
    },
    {
      "bufferView": 0,
      "byteOffset": 1355628,
      "componentType": 5125,
      "count": 31152,
      "type": "SCALAR"
    },
    {
      "bufferView": 2,
      "byteOffset": 2268888,
      "componentType": 5126,
      "count": 2349,
      "max": [
        -13.135385513305664,
        11.180089950561523,
        -13.467694282531738
      ],
      "min": [
        -13.726078987121582,
        10.287347793579102,
        -13.928680419921875
      ],
      "type": "VEC3"
    },
    {
      "bufferView": 2,
      "byteOffset": 2297076,
      "componentType": 5126,
      "count": 2349,
      "max": [
        0.9999311566352844,
        0.99988853931427,
        0.9039880037307739
      ],
      "min": [
        -0.9989679455757141,
        -0.9994505047798157,
        -1.0
      ],
      "type": "VEC3"
    },
    {
      "bufferView": 1,
      "byteOffset": 1529464,
      "componentType": 5126,
      "count": 2349,
      "max": [
        0.9995003938674927,
        0.9955244660377502
      ],
      "min": [
        0.0004995004856027663,
        0.00125564681366086
      ],
      "type": "VEC2"
    },
    {
      "bufferView": 0,
      "byteOffset": 1480236,
      "componentType": 5125,
      "count": 6849,
      "type": "SCALAR"
    },
    {
      "bufferView": 2,
      "byteOffset": 2325264,
      "componentType": 5126,
      "count": 1021,
      "max": [
        -7.858639240264893,
        20.14554214477539,
        13.923650741577148
      ],
      "min": [
        -19.003007888793945,
        1.3219478130340576,
        -13.118241310119629
      ],
      "type": "VEC3"
    },
    {
      "bufferView": 2,
      "byteOffset": 2337516,
      "componentType": 5126,
      "count": 1021,
      "max": [
        0.9975847005844116,
        0.9975852966308594,
        0.9997366070747375
      ],
      "min": [
        -0.9986408948898315,
        -0.9974068999290466,
        -1.0
      ],
      "type": "VEC3"
    },
    {
      "bufferView": 1,
      "byteOffset": 1548256,
      "componentType": 5126,
      "count": 1021,
      "max": [
        1.154733419418335,
        3.1812984943389893
      ],
      "min": [
        -0.17013214528560638,
        -2.242358446121216
      ],
      "type": "VEC2"
    },
    {
      "bufferView": 0,
      "byteOffset": 1507632,
      "componentType": 5125,
      "count": 3108,
      "type": "SCALAR"
    },
    {
      "bufferView": 2,
      "byteOffset": 2349768,
      "componentType": 5126,
      "count": 567,
      "max": [
        -18.356077194213867,
        19.818038940429688,
        12.817934036254883
      ],
      "min": [
        -18.474258422851563,
        18.5640869140625,
        0.7652034759521484
      ],
      "type": "VEC3"
    },
    {
      "bufferView": 2,
      "byteOffset": 2356572,
      "componentType": 5126,
      "count": 567,
      "max": [
        0.9998869895935059,
        0.85933917760849,
        0.4874466061592102
      ],
      "min": [
        -0.9998865127563477,
        -0.8593641519546509,
        -0.48740240931510925
      ],
      "type": "VEC3"
    },
    {
      "bufferView": 1,
      "byteOffset": 1556424,
      "componentType": 5126,
      "count": 567,
      "max": [
        0.9083739519119263,
        0.9012474417686462
      ],
      "min": [
        0.09348835051059723,
        0.08641372621059418
      ],
      "type": "VEC2"
    },
    {
      "bufferView": 0,
      "byteOffset": 1520064,
      "componentType": 5125,
      "count": 2880,
      "type": "SCALAR"
    },
    {
      "bufferView": 2,
      "byteOffset": 2363376,
      "componentType": 5126,
      "count": 1426,
      "max": [
        -7.905080795288086,
        20.077882766723633,
        14.02640151977539
      ],
      "min": [
        -18.918672561645508,
        1.4620717763900757,
        -14.013843536376953
      ],
      "type": "VEC3"
    },
    {
      "bufferView": 2,
      "byteOffset": 2380488,
      "componentType": 5126,
      "count": 1426,
      "max": [
        0.8742263317108154,
        0.8661445379257202,
        1.0
      ],
      "min": [
        -0.8678315281867981,
        -0.8661399483680725,
        -1.0
      ],
      "type": "VEC3"
    },
    {
      "bufferView": 1,
      "byteOffset": 1560960,
      "componentType": 5126,
      "count": 1426,
      "max": [
        11.926295280456543,
        14.352094650268555
      ],
      "min": [
        -9.440380096435547,
        -13.618321418762207
      ],
      "type": "VEC2"
    },
    {
      "bufferView": 0,
      "byteOffset": 1531584,
      "componentType": 5125,
      "count": 2928,
      "type": "SCALAR"
    },
    {
      "bufferView": 2,
      "byteOffset": 2397600,
      "componentType": 5126,
      "count": 99,
      "max": [
        -13.143974304199219,
        19.923566818237305,
        13.762182235717773
      ],
      "min": [
        -18.440887451171875,
        10.753872871398926,
        -1.7250170707702637
      ],
      "type": "VEC3"
    },
    {
      "bufferView": 2,
      "byteOffset": 2398788,
      "componentType": 5126,
      "count": 99,
      "max": [
        0.8659289479255676,
        0.500228226184845,
        3.19184000545647e-05
      ],
      "min": [
        0.865893542766571,
        0.5001670122146606,
        -3.191834548488259e-05
      ],
      "type": "VEC3"
    },
    {
      "bufferView": 1,
      "byteOffset": 1572368,
      "componentType": 5126,
      "count": 99,
      "max": [
        0.8785926699638367,
        0.8512957096099854
      ],
      "min": [
        0.1340765357017517,
        0.1637183427810669
      ],
      "type": "VEC2"
    },
    {
      "bufferView": 0,
      "byteOffset": 1543296,
      "componentType": 5125,
      "count": 288,
      "type": "SCALAR"
    },
    {
      "bufferView": 2,
      "byteOffset": 2399976,
      "componentType": 5126,
      "count": 106,
      "max": [
        -18.271135330200195,
        19.888071060180664,
        13.204033851623535
      ],
      "min": [
        -18.769691467285156,
        18.169349670410156,
        0.7313085198402405
      ],
      "type": "VEC3"
    },
    {
      "bufferView": 2,
      "byteOffset": 2401248,
      "componentType": 5126,
      "count": 106,
      "max": [
        0.8659239411354065,
        0.5002161264419556,
        1.821501246013213e-05
      ],
      "min": [
        -0.8659220933914185,
        -0.5002171993255615,
        -2.2436999643105082e-05
      ],
      "type": "VEC3"
    },
    {
      "bufferView": 1,
      "byteOffset": 1573160,
      "componentType": 5126,
      "count": 106,
      "max": [
        0.6448478102684021,
        0.9886009693145752
      ],
      "min": [
        0.35514938831329346,
        0.36474138498306274
      ],
      "type": "VEC2"
    },
    {
      "bufferView": 0,
      "byteOffset": 1544448,
      "componentType": 5125,
      "count": 312,
      "type": "SCALAR"
    },
    {
      "bufferView": 2,
      "byteOffset": 2402520,
      "componentType": 5126,
      "count": 872,
      "max": [
        -13.344278335571289,
        17.891620635986328,
        12.45026683807373
      ],
      "min": [
        -17.962364196777344,
        10.618997573852539,
        -13.687649726867676
      ],
      "type": "VEC3"
    },
    {
      "bufferView": 2,
      "byteOffset": 2412984,
      "componentType": 5126,
      "count": 872,
      "max": [
        0.8659517765045166,
        0.8661377429962158,
        1.0
      ],
      "min": [
        -0.9997409582138062,
        -0.9996920228004456,
        -1.0
      ],
      "type": "VEC3"
    },
    {
      "bufferView": 1,
      "byteOffset": 1574008,
      "componentType": 5126,
      "count": 872,
      "max": [
        0.8072225451469421,
        0.9995005130767822
      ],
      "min": [
        0.003602387849241495,
        0.9585724472999573
      ],
      "type": "VEC2"
    },
    {
      "bufferView": 0,
      "byteOffset": 1545696,
      "componentType": 5125,
      "count": 2976,
      "type": "SCALAR"
    },
    {
      "bufferView": 2,
      "byteOffset": 2423448,
      "componentType": 5126,
      "count": 314,
      "max": [
        -17.685382843017578,
        19.0260066986084,
        13.093424797058105
      ],
      "min": [
        -18.68386459350586,
        17.367277145385742,
        11.07642650604248
      ],
      "type": "VEC3"
    },
    {
      "bufferView": 2,
      "byteOffset": 2427216,
      "componentType": 5126,
      "count": 314,
      "max": [
        0.49977606534957886,
        0.8660916090011597,
        0.9997274875640869
      ],
      "min": [
        -0.8659310340881348,
        -0.8660862445831299,
        -0.999898374080658
      ],
      "type": "VEC3"
    },
    {
      "bufferView": 1,
      "byteOffset": 1580984,
      "componentType": 5126,
      "count": 314,
      "max": [
        0.9853445887565613,
        0.9905240535736084
      ],
      "min": [
        0.015004605054855347,
        0.0201835036277771
      ],
      "type": "VEC2"
    },
    {
      "bufferView": 0,
      "byteOffset": 1557600,
      "componentType": 5125,
      "count": 936,
      "type": "SCALAR"
    },
    {
      "bufferView": 2,
      "byteOffset": 2430984,
      "componentType": 5126,
      "count": 1072,
      "max": [
        -7.880699634552002,
        20.086950302124023,
        14.008810997009277
      ],
      "min": [
        -18.56410026550293,
        1.6187996864318848,
        -14.008837699890137
      ],
      "type": "VEC3"
    },
    {
      "bufferView": 2,
      "byteOffset": 2443848,
      "componentType": 5126,
      "count": 1072,
      "max": [
        0.9666445255279541,
        0.9981287121772766,
        1.0
      ],
      "min": [
        -0.49983733892440796,
        -0.8661407232284546,
        -1.0
      ],
      "type": "VEC3"
    },
    {
      "bufferView": 1,
      "byteOffset": 1583496,
      "componentType": 5126,
      "count": 1072,
      "max": [
        11.306565284729004,
        14.335777282714844
      ],
      "min": [
        -10.09823226928711,
        -13.67283821105957
      ],
      "type": "VEC2"
    },
    {
      "bufferView": 0,
      "byteOffset": 1561344,
      "componentType": 5125,
      "count": 4134,
      "type": "SCALAR"
    },
    {
      "bufferView": 2,
      "byteOffset": 2456712,
      "componentType": 5126,
      "count": 951,
      "max": [
        -18.356027603149414,
        19.81810188293457,
        12.818017959594727
      ],
      "min": [
        -18.47429656982422,
        18.564016342163086,
        0.7651299238204956
      ],
      "type": "VEC3"
    },
    {
      "bufferView": 2,
      "byteOffset": 2468124,
      "componentType": 5126,
      "count": 951,
      "max": [
        0.9933376312255859,
        0.8028140068054199,
        0.3961571455001831
      ],
      "min": [
        -0.9933353662490845,
        -0.8029713034629822,
        -0.39625006914138794
      ],
      "type": "VEC3"
    },
    {
      "bufferView": 1,
      "byteOffset": 1592072,
      "componentType": 5126,
      "count": 951,
      "max": [
        0.900368869304657,
        0.9005398750305176
      ],
      "min": [
        0.09943968057632446,
        0.0994618833065033
      ],
      "type": "VEC2"
    },
    {
      "bufferView": 0,
      "byteOffset": 1577880,
      "componentType": 5125,
      "count": 5184,
      "type": "SCALAR"
    },
    {
      "bufferView": 2,
      "byteOffset": 2479536,
      "componentType": 5126,
      "count": 2294,
      "max": [
        -13.136550903320313,
        19.11658477783203,
        13.244253158569336
      ],
      "min": [
        -18.785688400268555,
        10.28734302520752,
        -13.883234977722168
      ],
      "type": "VEC3"
    },
    {
      "bufferView": 2,
      "byteOffset": 2507064,
      "componentType": 5126,
      "count": 2294,
      "max": [
        0.9880532026290894,
        0.9890145063400269,
        0.9999008774757385
      ],
      "min": [
        -0.9970429539680481,
        -0.9975966811180115,
        -1.0
      ],
      "type": "VEC3"
    },
    {
      "bufferView": 1,
      "byteOffset": 1599680,
      "componentType": 5126,
      "count": 2294,
      "max": [
        0.9981727004051208,
        0.9991339445114136
      ],
      "min": [
        0.0004995004856027663,
        0.0004995005438104272
      ],
      "type": "VEC2"
    },
    {
      "bufferView": 0,
      "byteOffset": 1598616,
      "componentType": 5125,
      "count": 8106,
      "type": "SCALAR"
    },
    {
      "bufferView": 2,
      "byteOffset": 2534592,
      "componentType": 5126,
      "count": 746,
      "max": [
        -18.316402435302734,
        19.868122100830078,
        12.906064987182617
      ],
      "min": [
        -18.591289520263672,
        18.445817947387695,
        0.7343690991401672
      ],
      "type": "VEC3"
    },
    {
      "bufferView": 2,
      "byteOffset": 2543544,
      "componentType": 5126,
      "count": 746,
      "max": [
        0.9559445977210999,
        0.9137757420539856,
        0.9996159076690674
      ],
      "min": [
        -0.9960638880729675,
        -0.9215441346168518,
        -0.9996159076690674
      ],
      "type": "VEC3"
    },
    {
      "bufferView": 1,
      "byteOffset": 1618032,
      "componentType": 5126,
      "count": 746,
      "max": [
        1.0,
        1.0
      ],
      "min": [
        0.0,
        -2.384185791015625e-07
      ],
      "type": "VEC2"
    },
    {
      "bufferView": 0,
      "byteOffset": 1631040,
      "componentType": 5125,
      "count": 2832,
      "type": "SCALAR"
    }
  ],
  "asset": {
    "extras": {
      "author": "polyman (https://sketchfab.com/Polyman_3D)",
      "license": "CC-BY-4.0 (http://creativecommons.org/licenses/by/4.0/)",
      "source": "https://sketchfab.com/3d-models/ipad-pro-13in-silver-m4-8a113340443e49d3b905ab9f0b45efd6",
      "title": "Ipad pro 13in silver m4"
    },
    "generator": "Sketchfab-16.14.0",
    "version": "2.0"
  },
  "bufferViews": [
    {
      "buffer": 0,
      "byteLength": 1642368,
      "name": "floatBufferViews",
      "target": 34963
    },
    {
      "buffer": 0,
      "byteLength": 1624000,
      "byteOffset": 1642368,
      "byteStride": 8,
      "name": "floatBufferViews",
      "target": 34962
    },
    {
      "buffer": 0,
      "byteLength": 2552496,
      "byteOffset": 3266368,
      "byteStride": 12,
      "name": "floatBufferViews",
      "target": 34962
    },
    {
      "buffer": 0,
      "byteLength": 960896,
      "byteOffset": 5818864,
      "byteStride": 16,
      "name": "floatBufferViews",
      "target": 34962
    }
  ],
  "buffers": [
    {
      "byteLength": 6779760,
      "uri": "scene.bin"
    }
  ],
  "extensionsUsed": [
    "KHR_materials_emissive_strength"
  ],
  "images": [
    {
      "uri": "textures/AtpoqQwyXHyfcDR_metallicRoughness.png"
    },
    {
      "uri": "textures/AtpoqQwyXHyfcDR_normal.png"
    },
    {
      "uri": "textures/rlLxXLyqFuSJzQX_baseColor.jpeg"
    },
    {
      "uri": "textures/rlLxXLyqFuSJzQX_metallicRoughness.png"
    },
    {
      "uri": "textures/otqLWQuZkhmipQs_emissive.png"
    },
    {
      "uri": "textures/FrqgcMaoWnXCxPQ_baseColor.png"
    },
    {
      "uri": "textures/FrqgcMaoWnXCxPQ_metallicRoughness.png"
    },
    {
      "uri": "textures/jKxlebhoFEjFmnf_baseColor.png"
    },
    {
      "uri": "textures/jKxlebhoFEjFmnf_metallicRoughness.png"
    },
    {
      "uri": "textures/TznuREDYawffczN_baseColor.png"
    },
    {
      "uri": "textures/TznuREDYawffczN_metallicRoughness.png"
    },
    {
      "uri": "textures/TznuREDYawffczN_normal.png"
    },
    {
      "uri": "textures/qNcPOaKIPnbkQEP_baseColor.png"
    },
    {
      "uri": "textures/CvlwRpQyJJzldbv_metallicRoughness.png"
    },
    {
      "uri": "textures/TqhTgVXhIEMfiTt_metallicRoughness.png"
    },
    {
      "uri": "textures/tNTInhtuVhcfLey_metallicRoughness.png"
    },
    {
      "uri": "textures/JiwoEoDQOLnLqCc_metallicRoughness.png"
    },
    {
      "uri": "textures/pHNdlddhxBhpfDc_baseColor.jpeg"
    },
    {
      "uri": "textures/pHNdlddhxBhpfDc_normal.png"
    },
    {
      "uri": "textures/rJLLQibgXjvbmhN_baseColor.png"
    },
    {
      "uri": "textures/rJLLQibgXjvbmhN_metallicRoughness.png"
    },
    {
      "uri": "textures/rJLLQibgXjvbmhN_normal.png"
    },
    {
      "uri": "textures/fetMGkTMYCEbhfc_metallicRoughness.png"
    },
    {
      "uri": "textures/peAefkBsoaxeaGR_baseColor.jpeg"
    },
    {
      "uri": "textures/peAefkBsoaxeaGR_metallicRoughness.png"
    },
    {
      "uri": "textures/TqhTgVXhIEMfiTt_0_metallicRoughness.png"
    },
    {
      "uri": "textures/lPecWudGlMcwHNs_baseColor.png"
    },
    {
      "uri": "textures/lPecWudGlMcwHNs_metallicRoughness.png"
    },
    {
      "uri": "textures/lPecWudGlMcwHNs_normal.png"
    },
    {
      "uri": "textures/ZOeABjzhcCnMIQN_metallicRoughness.png"
    },
    {
      "uri": "textures/ZOeABjzhcCnMIQN_normal.png"
    },
    {
      "uri": "textures/llEXDLHtmQUlhoH_metallicRoughness.png"
    },
    {
      "uri": "textures/ZGneimAgCRnJijf_baseColor.jpeg"
    },
    {
      "uri": "textures/aFKyVsKnRxtPSIc_metallicRoughness.png"
    },
    {
      "uri": "textures/zTliqrIZmHqtGYA_metallicRoughness.png"
    }
  ],
  "materials": [
    {
      "doubleSided": true,
      "name": "sWpcDaipWDFtTnj",
      "pbrMetallicRoughness": {
        "baseColorFactor": [
          0.0,
          0.0,
          0.0,
          1.0
        ],
        "metallicFactor": 0.0,
        "roughnessFactor": 0.05
      }
    },
    {
      "doubleSided": true,
      "name": "wADiXiaDqUQHYtm",
      "pbrMetallicRoughness": {
        "baseColorFactor": [
          0.590356,
          0.596396,
          0.603827,
          1.0
        ],
        "metallicFactor": 0.0,
        "roughnessFactor": 0.8
      }
    },
    {
      "doubleSided": true,
      "name": "AtpoqQwyXHyfcDR",
      "normalTexture": {
        "index": 1
      },
      "pbrMetallicRoughness": {
        "baseColorFactor": [
          0.76972,
          0.775297,
          0.787412,
          1.0
        ],
        "metallicRoughnessTexture": {
          "index": 0
        }
      }
    },
    {
      "doubleSided": true,
      "name": "tEopPPwRRYPaaeg",
      "pbrMetallicRoughness": {
        "baseColorFactor": [
          0.686279,
          0.701,
          0.693617,
          1.0
        ],
        "roughnessFactor": 0.001
      }
    },
    {
      "doubleSided": true,
      "name": "DKGKiYBuBHgIONV",
      "pbrMetallicRoughness": {
        "baseColorFactor": [
          0.0,
          0.0,
          0.0,
          1.0
        ],
        "metallicFactor": 0.075,
        "roughnessFactor": 0.05
      }
    },
    {
      "doubleSided": true,
      "name": "rlLxXLyqFuSJzQX",
      "normalTexture": {
        "index": 1,
        "texCoord": 1
      },
      "pbrMetallicRoughness": {
        "baseColorTexture": {
          "index": 2
        },
        "metallicRoughnessTexture": {
          "index": 3,
          "texCoord": 1
        }
      }
    },
    {
      "doubleSided": true,
      "emissiveFactor": [
        1.0,
        1.0,
        1.0
      ],
      "emissiveTexture": {
        "index": 4
      },
      "extensions": {
        "KHR_materials_emissive_strength": {
          "emissiveStrength": 2.0
        }
      },
      "name": "otqLWQuZkhmipQs",
      "pbrMetallicRoughness": {
        "baseColorFactor": [
          0.0,
          0.0,
          0.0,
          1.0
        ],
        "metallicFactor": 0.0,
        "roughnessFactor": 0.05
      }
    },
    {
      "alphaMode": "BLEND",
      "doubleSided": true,
      "name": "FrqgcMaoWnXCxPQ",
      "pbrMetallicRoughness": {
        "baseColorFactor": [
          1.0,
          1.0,
          1.0,
          0.2
        ],
        "baseColorTexture": {
          "index": 5
        },
        "metallicRoughnessTexture": {
          "index": 6
        }
      }
    },
    {
      "doubleSided": true,
      "name": "jKxlebhoFEjFmnf",
      "occlusionTexture": {
        "index": 8
      },
      "pbrMetallicRoughness": {
        "baseColorTexture": {
          "index": 7
        },
        "metallicRoughnessTexture": {
          "index": 8
        },
        "roughnessFactor": 0.501
      }
    },
    {
      "doubleSided": true,
      "name": "TznuREDYawffczN",
      "normalTexture": {
        "index": 11
      },
      "pbrMetallicRoughness": {
        "baseColorTexture": {
          "index": 9
        },
        "metallicRoughnessTexture": {
          "index": 10
        }
      }
    },
    {
      "doubleSided": true,
      "name": "sgGoeootjbRjyLt",
      "pbrMetallicRoughness": {
        "baseColorFactor": [
          0.0219287,
          0.02178,
          0.022,
          1.0
        ],
        "metallicFactor": 0.0,
        "roughnessFactor": 0.1
      }
    },
    {
      "doubleSided": true,
      "name": "hHkyTAHrTokEUgD",
      "normalTexture": {
        "index": 1
      },
      "pbrMetallicRoughness": {
        "metallicFactor": 0.55,
        "roughnessFactor": 0.35
      }
    },
    {
      "doubleSided": true,
      "name": "qNcPOaKIPnbkQEP",
      "pbrMetallicRoughness": {
        "baseColorTexture": {
          "index": 12
        },
        "metallicFactor": 0.501,
        "roughnessFactor": 0.9
      }
    },
    {
      "alphaMode": "BLEND",
      "doubleSided": true,
      "name": "vToxZCSEduZgUqW",
      "pbrMetallicRoughness": {
        "baseColorFactor": [
          0.0,
          0.0,
          0.0,
          0.1
        ],
        "metallicFactor": 0.0,
        "roughnessFactor": 0.05
      }
    },
    {
      "doubleSided": true,
      "name": "CvlwRpQyJJzldbv",
      "occlusionTexture": {
        "index": 13
      },
      "pbrMetallicRoughness": {
        "baseColorFactor": [
          0.318,
          0.318,
          0.318,
          1.0
        ],
        "metallicFactor": 0.0,
        "metallicRoughnessTexture": {
          "index": 13
        },
        "roughnessFactor": 0.4
      }
    },
    {
      "doubleSided": true,
      "name": "TqhTgVXhIEMfiTt",
      "occlusionTexture": {
        "index": 14
      },
      "pbrMetallicRoughness": {
        "baseColorFactor": [
          0.0,
          0.0,
          0.0,
          1.0
        ],
        "metallicFactor": 0.0,
        "metallicRoughnessTexture": {
          "index": 14
        }
      }
    },
    {
      "doubleSided": true,
      "name": "tNTInhtuVhcfLey",
      "normalTexture": {
        "index": 1
      },
      "pbrMetallicRoughness": {
        "baseColorFactor": [
          0.260359,
          0.272574,
          0.284647,
          1.0
        ],
        "metallicRoughnessTexture": {
          "index": 15
        }
      }
    },
    {
      "doubleSided": true,
      "name": "JiwoEoDQOLnLqCc",
      "normalTexture": {
        "index": 1,
        "texCoord": 1
      },
      "occlusionTexture": {
        "index": 16,
        "texCoord": 1
      },
      "pbrMetallicRoughness": {
        "baseColorTexture": {
          "index": 2
        },
        "metallicRoughnessTexture": {
          "index": 16,
          "texCoord": 1
        }
      }
    },
    {
      "doubleSided": true,
      "name": "pHNdlddhxBhpfDc",
      "normalTexture": {
        "index": 18,
        "texCoord": 1
      },
      "pbrMetallicRoughness": {
        "baseColorTexture": {
          "index": 17
        },
        "metallicFactor": 0.0,
        "roughnessFactor": 0.5
      }
    },
    {
      "doubleSided": true,
      "name": "rJLLQibgXjvbmhN",
      "normalTexture": {
        "index": 21
      },
      "occlusionTexture": {
        "index": 20
      },
      "pbrMetallicRoughness": {
        "baseColorTexture": {
          "index": 19
        },
        "metallicRoughnessTexture": {
          "index": 20
        }
      }
    },
    {
      "doubleSided": true,
      "name": "IGocsgpTqPcQgSO",
      "occlusionTexture": {
        "index": 13
      },
      "pbrMetallicRoughness": {
        "baseColorFactor": [
          0.0,
          0.0,
          0.0,
          1.0
        ],
        "metallicRoughnessTexture": {
          "index": 13
        },
        "roughnessFactor": 0.2
      }
    },
    {
      "doubleSided": true,
      "name": "QaBMMLWYwWUThNS",
      "occlusionTexture": {
        "index": 13
      },
      "pbrMetallicRoughness": {
        "baseColorFactor": [
          0.5,
          0.5,
          0.5,
          1.0
        ],
        "metallicFactor": 0.0,
        "metallicRoughnessTexture": {
          "index": 13
        },
        "roughnessFactor": 0.4
      }
    },
    {
      "doubleSided": true,
      "name": "fetMGkTMYCEbhfc",
      "occlusionTexture": {
        "index": 22
      },
      "pbrMetallicRoughness": {
        "baseColorFactor": [
          0.59,
          0.59,
          0.59,
          1.0
        ],
        "metallicFactor": 0.0,
        "metallicRoughnessTexture": {
          "index": 22
        },
        "roughnessFactor": 0.75
      }
    },
    {
      "doubleSided": true,
      "name": "peAefkBsoaxeaGR",
      "normalTexture": {
        "index": 1,
        "texCoord": 1
      },
      "pbrMetallicRoughness": {
        "baseColorTexture": {
          "index": 23
        },
        "metallicRoughnessTexture": {
          "index": 24,
          "texCoord": 1
        }
      }
    },
    {
      "doubleSided": true,
      "name": "TqhTgVXhIEMfiTt_0",
      "occlusionTexture": {
        "index": 25
      },
      "pbrMetallicRoughness": {
        "baseColorFactor": [
          0.0,
          0.0,
          0.0,
          1.0
        ],
        "metallicFactor": 0.0,
        "metallicRoughnessTexture": {
          "index": 25
        }
      }
    },
    {
      "doubleSided": true,
      "name": "FEfpLzzsfGHnkqL",
      "occlusionTexture": {
        "index": 22
      },
      "pbrMetallicRoughness": {
        "baseColorFactor": [
          0.5,
          0.5,
          0.5,
          1.0
        ],
        "metallicRoughnessTexture": {
          "index": 22
        },
        "roughnessFactor": 0.2
      }
    },
    {
      "doubleSided": true,
      "name": "UoLXHLITItJlNkC",
      "occlusionTexture": {
        "index": 22
      },
      "pbrMetallicRoughness": {
        "metallicRoughnessTexture": {
          "index": 22
        },
        "roughnessFactor": 0.6
      }
    },
    {
      "doubleSided": true,
      "name": "eZotBtAxtUsOTNW",
      "occlusionTexture": {
        "index": 22
      },
      "pbrMetallicRoughness": {
        "baseColorFactor": [
          0.45,
          0.3375,
          0.1125,
          1.0
        ],
        "metallicRoughnessTexture": {
          "index": 22
        },
        "roughnessFactor": 0.45
      }
    },
    {
      "doubleSided": true,
      "name": "lPecWudGlMcwHNs",
      "normalTexture": {
        "index": 28,
        "texCoord": 1
      },
      "occlusionTexture": {
        "index": 27,
        "texCoord": 1
      },
      "pbrMetallicRoughness": {
        "baseColorTexture": {
          "index": 26
        },
        "metallicFactor": 0.0,
        "metallicRoughnessTexture": {
          "index": 27,
          "texCoord": 1
        }
      }
    },
    {
      "doubleSided": true,
      "name": "AZuTsYWbWNLnBCN",
      "normalTexture": {
        "index": 1,
        "texCoord": 1
      },
      "pbrMetallicRoughness": {
        "baseColorTexture": {
          "index": 23
        },
        "metallicRoughnessTexture": {
          "index": 24,
          "texCoord": 1
        }
      }
    },
    {
      "doubleSided": true,
      "name": "dYBoFvvrvdHdDUx",
      "pbrMetallicRoughness": {
        "baseColorFactor": [
          0.1,
          0.1,
          0.1,
          1.0
        ],
        "metallicFactor": 0.0,
        "roughnessFactor": 0.4
      }
    },
    {
      "doubleSided": true,
      "name": "ZOeABjzhcCnMIQN",
      "normalTexture": {
        "index": 30
      },
      "occlusionTexture": {
        "index": 29
      },
      "pbrMetallicRoughness": {
        "baseColorFactor": [
          0.59,
          0.59,
          0.59,
          1.0
        ],
        "metallicFactor": 0.0,
        "metallicRoughnessTexture": {
          "index": 29
        }
      }
    },
    {
      "doubleSided": true,
      "name": "llEXDLHtmQUlhoH",
      "occlusionTexture": {
        "index": 31
      },
      "pbrMetallicRoughness": {
        "baseColorFactor": [
          0.5,
          0.5,
          0.5,
          1.0
        ],
        "metallicFactor": 0.0,
        "metallicRoughnessTexture": {
          "index": 31
        },
        "roughnessFactor": 0.41
      }
    },
    {
      "doubleSided": true,
      "name": "ZGneimAgCRnJijf",
      "normalTexture": {
        "index": 1,
        "texCoord": 1
      },
      "pbrMetallicRoughness": {
        "baseColorTexture": {
          "index": 32
        },
        "metallicRoughnessTexture": {
          "index": 24,
          "texCoord": 1
        }
      }
    },
    {
      "doubleSided": true,
      "name": "slziinNUYjEtJqO",
      "occlusionTexture": {
        "index": 25
      },
      "pbrMetallicRoughness": {
        "baseColorFactor": [
          0.0,
          0.0,
          0.0,
          1.0
        ],
        "metallicFactor": 0.0,
        "metallicRoughnessTexture": {
          "index": 25
        }
      }
    },
    {
      "doubleSided": true,
      "name": "ojnpFucblZirQMP",
      "pbrMetallicRoughness": {
        "baseColorFactor": [
          0.2,
          0.215,
          0.22,
          1.0
        ],
        "metallicFactor": 0.0,
        "roughnessFactor": 0.8
      }
    },
    {
      "doubleSided": true,
      "name": "aFKyVsKnRxtPSIc",
      "occlusionTexture": {
        "index": 33
      },
      "pbrMetallicRoughness": {
        "baseColorFactor": [
          0.8,
          0.8,
          0.8,
          1.0
        ],
        "metallicFactor": 0.0,
        "metallicRoughnessTexture": {
          "index": 33
        },
        "roughnessFactor": 0.8
      }
    },
    {
      "doubleSided": true,
      "name": "zTliqrIZmHqtGYA",
      "occlusionTexture": {
        "index": 34
      },
      "pbrMetallicRoughness": {
        "baseColorFactor": [
          0.827571,
          0.827571,
          0.827571,
          1.0
        ],
        "metallicFactor": 0.0,
        "metallicRoughnessTexture": {
          "index": 34
        },
        "roughnessFactor": 0.85
      }
    }
  ],
  "meshes": [
    {
      "name": "LnNrRRAQOCeAZvC",
      "primitives": [
        {
          "attributes": {
            "NORMAL": 1,
            "POSITION": 0,
            "TEXCOORD_0": 2
          },
          "indices": 3,
          "material": 34,
          "mode": 4
        }
      ]
    },
    {
      "name": "VafWfnbbqnvoFHm",
      "primitives": [
        {
          "attributes": {
            "NORMAL": 5,
            "POSITION": 4,
            "TEXCOORD_0": 6
          },
          "indices": 7,
          "material": 35,
          "mode": 4
        }
      ]
    },
    {
      "name": "qCzZmpqsTctXcrb",
      "primitives": [
        {
          "attributes": {
            "NORMAL": 9,
            "POSITION": 8,
            "TEXCOORD_0": 10,
            "TEXCOORD_1": 11
          },
          "indices": 12,
          "material": 36,
          "mode": 4
        }
      ]
    },
    {
      "name": "YbbSYeQhOxKuoyj",
      "primitives": [
        {
          "attributes": {
            "NORMAL": 14,
            "POSITION": 13,
            "TEXCOORD_0": 15,
            "TEXCOORD_1": 16
          },
          "indices": 17,
          "material": 37,
          "mode": 4
        }
      ]
    },
    {
      "name": "qMySgvAZPQLyJha",
      "primitives": [
        {
          "attributes": {
            "NORMAL": 19,
            "POSITION": 18,
            "TEXCOORD_0": 20
          },
          "indices": 21,
          "material": 22,
          "mode": 4
        }
      ]
    },
    {
      "name": "OEQcAqSXcnKaUOE",
      "primitives": [
        {
          "attributes": {
            "NORMAL": 23,
            "POSITION": 22,
            "TEXCOORD_0": 24
          },
          "indices": 25,
          "material": 24,
          "mode": 4
        }
      ]
    },
    {
      "name": "DrcYzFmiOfKdeZe",
      "primitives": [
        {
          "attributes": {
            "NORMAL": 27,
            "POSITION": 26,
            "TANGENT": 28,
            "TEXCOORD_0": 29,
            "TEXCOORD_1": 30
          },
          "indices": 31,
          "material": 23,
          "mode": 4
        }
      ]
    },
    {
      "name": "gBlUCtDyXyMRPqx",
      "primitives": [
        {
          "attributes": {
            "NORMAL": 33,
            "POSITION": 32,
            "TEXCOORD_0": 34
          },
          "indices": 35,
          "material": 25,
          "mode": 4
        }
      ]
    },
    {
      "name": "JdEVVtxiHuCClVS",
      "primitives": [
        {
          "attributes": {
            "NORMAL": 37,
            "POSITION": 36,
            "TEXCOORD_0": 38
          },
          "indices": 39,
          "material": 24,
          "mode": 4
        }
      ]
    },
    {
      "name": "zSmVLZftLugfLRZ",
      "primitives": [
        {
          "attributes": {
            "NORMAL": 41,
            "POSITION": 40,
            "TEXCOORD_0": 42
          },
          "indices": 43,
          "material": 26,
          "mode": 4
        }
      ]
    },
    {
      "name": "zrvyXjlbtjYwrOv",
      "primitives": [
        {
          "attributes": {
            "NORMAL": 45,
            "POSITION": 44,
            "TEXCOORD_0": 46
          },
          "indices": 47,
          "material": 27,
          "mode": 4
        }
      ]
    },
    {
      "name": "lkeofdXkpFHZkdx",
      "primitives": [
        {
          "attributes": {
            "NORMAL": 49,
            "POSITION": 48,
            "TEXCOORD_0": 50
          },
          "indices": 51,
          "material": 22,
          "mode": 4
        }
      ]
    },
    {
      "name": "IKHWfRUdSrzoulc",
      "primitives": [
        {
          "attributes": {
            "NORMAL": 53,
            "POSITION": 52,
            "TANGENT": 54,
            "TEXCOORD_0": 55,
            "TEXCOORD_1": 56
          },
          "indices": 57,
          "material": 28,
          "mode": 4
        }
      ]
    },
    {
      "name": "JSIYFTAfNBxITwh",
      "primitives": [
        {
          "attributes": {
            "NORMAL": 59,
            "POSITION": 58,
            "TANGENT": 60,
            "TEXCOORD_0": 61,
            "TEXCOORD_1": 62,
            "TEXCOORD_2": 63,
            "TEXCOORD_3": 64
          },
          "indices": 65,
          "material": 31,
          "mode": 4
        }
      ]
    },
    {
      "name": "IqRfKStwDgeRQOZ",
      "primitives": [
        {
          "attributes": {
            "NORMAL": 67,
            "POSITION": 66,
            "TEXCOORD_0": 68
          },
          "indices": 69,
          "material": 32,
          "mode": 4
        }
      ]
    },
    {
      "name": "iekTaVdHmnWwJsx",
      "primitives": [
        {
          "attributes": {
            "NORMAL": 71,
            "POSITION": 70,
            "TANGENT": 72,
            "TEXCOORD_0": 73,
            "TEXCOORD_1": 74
          },
          "indices": 75,
          "material": 23,
          "mode": 4
        }
      ]
    },
    {
      "name": "gkBpCLiJsVZOeeI",
      "primitives": [
        {
          "attributes": {
            "NORMAL": 77,
            "POSITION": 76,
            "TEXCOORD_0": 78
          },
          "indices": 79,
          "material": 22,
          "mode": 4
        }
      ]
    },
    {
      "name": "lrbrVschRxheJpH",
      "primitives": [
        {
          "attributes": {
            "NORMAL": 81,
            "POSITION": 80,
            "TEXCOORD_0": 82
          },
          "indices": 83,
          "material": 30,
          "mode": 4
        }
      ]
    },
    {
      "name": "QrDbpdHDavAtmIJ",
      "primitives": [
        {
          "attributes": {
            "NORMAL": 85,
            "POSITION": 84,
            "TEXCOORD_0": 86
          },
          "indices": 87,
          "material": 30,
          "mode": 4
        }
      ]
    },
    {
      "name": "KCdNBYluvwbWRkT",
      "primitives": [
        {
          "attributes": {
            "NORMAL": 89,
            "POSITION": 88,
            "TEXCOORD_0": 90
          },
          "indices": 91,
          "material": 30,
          "mode": 4
        }
      ]
    },
    {
      "name": "CDrzEfoLjyASCRi",
      "primitives": [
        {
          "attributes": {
            "NORMAL": 93,
            "POSITION": 92,
            "TEXCOORD_0": 94
          },
          "indices": 95,
          "material": 24,
          "mode": 4
        }
      ]
    },
    {
      "name": "nJERXzOZsnFcSON",
      "primitives": [
        {
          "attributes": {
            "NORMAL": 97,
            "POSITION": 96,
            "TANGENT": 98,
            "TEXCOORD_0": 99,
            "TEXCOORD_1": 100
          },
          "indices": 101,
          "material": 29,
          "mode": 4
        }
      ]
    },
    {
      "name": "BpyRVSoPvSPKdjk",
      "primitives": [
        {
          "attributes": {
            "NORMAL": 103,
            "POSITION": 102,
            "TANGENT": 104,
            "TEXCOORD_0": 105,
            "TEXCOORD_1": 106
          },
          "indices": 107,
          "material": 29,
          "mode": 4
        }
      ]
    },
    {
      "name": "XFdCnuCHXOLuzFd",
      "primitives": [
        {
          "attributes": {
            "NORMAL": 109,
            "POSITION": 108,
            "TANGENT": 110,
            "TEXCOORD_0": 111,
            "TEXCOORD_1": 112
          },
          "indices": 113,
          "material": 33,
          "mode": 4
        }
      ]
    },
    {
      "name": "zdoRrgpyBlEwuot",
      "primitives": [
        {
          "attributes": {
            "NORMAL": 115,
            "POSITION": 114,
            "TANGENT": 116,
            "TEXCOORD_0": 117
          },
          "indices": 118,
          "material": 9,
          "mode": 4
        }
      ]
    },
    {
      "name": "lvZTGjwbPKrlIgL",
      "primitives": [
        {
          "attributes": {
            "NORMAL": 120,
            "POSITION": 119,
            "TANGENT": 121,
            "TEXCOORD_0": 122,
            "TEXCOORD_1": 123
          },
          "indices": 124,
          "material": 18,
          "mode": 4
        }
      ]
    },
    {
      "name": "zOxbcmrLkjhpczv",
      "primitives": [
        {
          "attributes": {
            "NORMAL": 126,
            "POSITION": 125,
            "TEXCOORD_0": 127
          },
          "indices": 128,
          "material": 3,
          "mode": 4
        }
      ]
    },
    {
      "name": "zqtoVbRomYTqSHh",
      "primitives": [
        {
          "attributes": {
            "NORMAL": 130,
            "POSITION": 129,
            "TANGENT": 131,
            "TEXCOORD_0": 132
          },
          "indices": 133,
          "material": 16,
          "mode": 4
        }
      ]
    },
    {
      "name": "VnCyGREoTEZBfuS",
      "primitives": [
        {
          "attributes": {
            "NORMAL": 135,
            "POSITION": 134,
            "TANGENT": 136,
            "TEXCOORD_0": 137,
            "TEXCOORD_1": 138
          },
          "indices": 139,
          "material": 5,
          "mode": 4
        }
      ]
    },
    {
      "name": "fBGkvTIPDCpeUdv",
      "primitives": [
        {
          "attributes": {
            "NORMAL": 141,
            "POSITION": 140,
            "TANGENT": 142,
            "TEXCOORD_0": 143
          },
          "indices": 144,
          "material": 19,
          "mode": 4
        }
      ]
    },
    {
      "name": "XhdsDfLvMqlYopX",
      "primitives": [
        {
          "attributes": {
            "NORMAL": 146,
            "POSITION": 145,
            "TANGENT": 147,
            "TEXCOORD_0": 148
          },
          "indices": 149,
          "material": 11,
          "mode": 4
        }
      ]
    },
    {
      "name": "ieymSYEAEEGnCHY",
      "primitives": [
        {
          "attributes": {
            "NORMAL": 151,
            "POSITION": 150,
            "TANGENT": 152,
            "TEXCOORD_0": 153
          },
          "indices": 154,
          "material": 2,
          "mode": 4
        }
      ]
    },
    {
      "name": "EjCaatfcGdAQBho",
      "primitives": [
        {
          "attributes": {
            "NORMAL": 156,
            "POSITION": 155,
            "TEXCOORD_0": 157
          },
          "indices": 158,
          "material": 6,
          "mode": 4
        }
      ]
    },
    {
      "name": "bwtdVbkPLiQMXKM",
      "primitives": [
        {
          "attributes": {
            "NORMAL": 160,
            "POSITION": 159,
            "TANGENT": 161,
            "TEXCOORD_0": 162,
            "TEXCOORD_1": 163
          },
          "indices": 164,
          "material": 17,
          "mode": 4
        }
      ]
    },
    {
      "name": "yBwLyuhmpCmUMMk",
      "primitives": [
        {
          "attributes": {
            "NORMAL": 166,
            "POSITION": 165,
            "TEXCOORD_0": 167
          },
          "indices": 168,
          "material": 21,
          "mode": 4
        }
      ]
    },
    {
      "name": "CcxadAujtCPXuLV",
      "primitives": [
        {
          "attributes": {
            "NORMAL": 170,
            "POSITION": 169,
            "TEXCOORD_0": 171
          },
          "indices": 172,
          "material": 1,
          "mode": 4
        }
      ]
    },
    {
      "name": "laYPXJaXKxBTuRW",
      "primitives": [
        {
          "attributes": {
            "NORMAL": 174,
            "POSITION": 173,
            "TEXCOORD_0": 175
          },
          "indices": 176,
          "material": 8,
          "mode": 4
        }
      ]
    },
    {
      "name": "snPzrtEiZOaNoBZ",
      "primitives": [
        {
          "attributes": {
            "NORMAL": 178,
            "POSITION": 177,
            "TEXCOORD_0": 179
          },
          "indices": 180,
          "material": 15,
          "mode": 4
        }
      ]
    },
    {
      "name": "kOhUjVWqqoHQjNI",
      "primitives": [
        {
          "attributes": {
            "NORMAL": 182,
            "POSITION": 181,
            "TEXCOORD_0": 183
          },
          "indices": 184,
          "material": 4,
          "mode": 4
        }
      ]
    },
    {
      "name": "ldZiTGWVpNIZvEF",
      "primitives": [
        {
          "attributes": {
            "NORMAL": 186,
            "POSITION": 185,
            "TEXCOORD_0": 187
          },
          "indices": 188,
          "material": 13,
          "mode": 4
        }
      ]
    },
    {
      "name": "hnYcoCKxgDmBJvH",
      "primitives": [
        {
          "attributes": {
            "NORMAL": 190,
            "POSITION": 189,
            "TEXCOORD_0": 191
          },
          "indices": 192,
          "material": 14,
          "mode": 4
        }
      ]
    },
    {
      "name": "JIouNTotQkoXojU",
      "primitives": [
        {
          "attributes": {
            "NORMAL": 194,
            "POSITION": 193,
            "TEXCOORD_0": 195
          },
          "indices": 196,
          "material": 10,
          "mode": 4
        }
      ]
    },
    {
      "name": "wxOnnlZoqhCsHwI",
      "primitives": [
        {
          "attributes": {
            "NORMAL": 198,
            "POSITION": 197,
            "TEXCOORD_0": 199
          },
          "indices": 200,
          "material": 0,
          "mode": 4
        }
      ]
    },
    {
      "name": "oewVWPhxMfJdTyq",
      "primitives": [
        {
          "attributes": {
            "NORMAL": 202,
            "POSITION": 201,
            "TEXCOORD_0": 203
          },
          "indices": 204,
          "material": 7,
          "mode": 4
        }
      ]
    },
    {
      "name": "IlKIbpRbYPwAlfo",
      "primitives": [
        {
          "attributes": {
            "NORMAL": 206,
            "POSITION": 205,
            "TEXCOORD_0": 207
          },
          "indices": 208,
          "material": 20,
          "mode": 4
        }
      ]
    },
    {
      "name": "QoSihQMHwrLgUhV",
      "primitives": [
        {
          "attributes": {
            "NORMAL": 210,
            "POSITION": 209,
            "TEXCOORD_0": 211
          },
          "indices": 212,
          "material": 12,
          "mode": 4
        }
      ]
    }
  ],
  "nodes": [
    {
      "children": [
        1
      ],
      "matrix": [
        1.0,
        0.0,
        0.0,
        0.0,
        0.0,
        2.220446049250313e-16,
        -1.0,
        0.0,
        0.0,
        1.0,
        2.220446049250313e-16,
        0.0,
        0.0,
        0.0,
        0.0,
        1.0
      ],
      "name": "Sketchfab_model"
    },
    {
      "children": [
        2,
        8,
        37
      ],
      "matrix": [
        0.009999999776482582,
        0.0,
        0.0,
        0.0,
        0.0,
        2.2204459996194763e-18,
        0.009999999776482582,
        0.0,
        0.0,
        -0.009999999776482582,
        2.2204459996194763e-18,
        0.0,
        0.0,
        0.0,
        0.0,
        1.0
      ],
      "name": "USDRoot"
    },
    {
      "children": [
        3
      ],
      "matrix": [
        1.0,
        0.0,
        0.0,
        0.0,
        0.0,
        1.0,
        0.0,
        0.0,
        0.0,
        0.0,
        1.0,
        0.0,
        0.0,
        0.0,
        -0.7440000176429749,
        1.0
      ],
      "name": "fpsiJBTpZDMaphS"
    },
    {
      "children": [
        4,
        5,
        6,
        7
      ],
      "name": "NJJoIzfDKwLsGZo"
    },
    {
      "mesh": 0,
      "name": "LnNrRRAQOCeAZvC"
    },
    {
      "mesh": 1,
      "name": "VafWfnbbqnvoFHm"
    },
    {
      "mesh": 2,
      "name": "qCzZmpqsTctXcrb"
    },
    {
      "mesh": 3,
      "name": "YbbSYeQhOxKuoyj"
    },
    {
      "children": [
        9
      ],
      "name": "fpsiJBTpZDMaphS"
    },
    {
      "children": [
        10,
        24
      ],
      "name": "ZToPGXmjtlhWCZi"
    },
    {
      "children": [
        11,
        12,
        19,
        22
      ],
      "name": "CPcpvliCnKWjcvU"
    },
    {
      "mesh": 4,
      "name": "qMySgvAZPQLyJha"
    },
    {
      "children": [
        13,
        14,
        15
      ],
      "name": "OvOJMdDvpQrHwzD"
    },
    {
      "mesh": 5,
      "name": "OEQcAqSXcnKaUOE"
    },
    {
      "mesh": 6,
      "name": "DrcYzFmiOfKdeZe"
    },
    {
      "children": [
        16,
        17,
        18
      ],
      "name": "hwvbHHNiWbRpqcX"
    },
    {
      "mesh": 7,
      "name": "gBlUCtDyXyMRPqx"
    },
    {
      "mesh": 8,
      "name": "JdEVVtxiHuCClVS"
    },
    {
      "mesh": 9,
      "name": "zSmVLZftLugfLRZ"
    },
    {
      "children": [
        20,
        21
      ],
      "name": "eLIHsTggWtDddkB"
    },
    {
      "mesh": 10,
      "name": "zrvyXjlbtjYwrOv"
    },
    {
      "mesh": 11,
      "name": "lkeofdXkpFHZkdx"
    },
    {
      "children": [
        23
      ],
      "name": "WURhwpEYeccohuA"
    },
    {
      "mesh": 12,
      "name": "IKHWfRUdSrzoulc"
    },
    {
      "children": [
        25,
        26,
        27,
        28,
        29,
        30,
        31,
        32,
        33,
        34,
        35
      ],
      "name": "ZcYgRucTCDzGICi"
    },
    {
      "mesh": 13,
      "name": "JSIYFTAfNBxITwh"
    },
    {
      "mesh": 14,
      "name": "IqRfKStwDgeRQOZ"
    },
    {
      "mesh": 15,
      "name": "iekTaVdHmnWwJsx"
    },
    {
      "mesh": 16,
      "name": "gkBpCLiJsVZOeeI"
    },
    {
      "mesh": 17,
      "name": "lrbrVschRxheJpH"
    },
    {
      "mesh": 18,
      "name": "QrDbpdHDavAtmIJ"
    },
    {
      "mesh": 19,
      "name": "KCdNBYluvwbWRkT"
    },
    {
      "mesh": 20,
      "name": "CDrzEfoLjyASCRi"
    },
    {
      "mesh": 21,
      "name": "nJERXzOZsnFcSON"
    },
    {
      "mesh": 22,
      "name": "BpyRVSoPvSPKdjk"
    },
    {
      "children": [
        36
      ],
      "name": "LlzKuLyXEgZsbHE"
    },
    {
      "mesh": 23,
      "name": "XFdCnuCHXOLuzFd"
    },
    {
      "children": [
        38
      ],
      "name": "fpsiJBTpZDMaphS"
    },
    {
      "children": [
        39,
        40,
        41,
        42,
        43,
        44,
        45,
        46,
        47,
        48,
        49,
        50,
        51,
        52,
        53,
        54,
        55,
        56,
        57,
        58,
        59,
        60
      ],
      "name": "aFeFJQNSYagPeTR"
    },
    {
      "mesh": 24,
      "name": "zdoRrgpyBlEwuot"
    },
    {
      "mesh": 25,
      "name": "lvZTGjwbPKrlIgL"
    },
    {
      "mesh": 26,
      "name": "zOxbcmrLkjhpczv"
    },
    {
      "mesh": 27,
      "name": "zqtoVbRomYTqSHh"
    },
    {
      "mesh": 28,
      "name": "VnCyGREoTEZBfuS"
    },
    {
      "mesh": 29,
      "name": "fBGkvTIPDCpeUdv"
    },
    {
      "mesh": 30,
      "name": "XhdsDfLvMqlYopX"
    },
    {
      "mesh": 31,
      "name": "ieymSYEAEEGnCHY"
    },
    {
      "mesh": 32,
      "name": "EjCaatfcGdAQBho"
    },
    {
      "mesh": 33,
      "name": "bwtdVbkPLiQMXKM"
    },
    {
      "mesh": 34,
      "name": "yBwLyuhmpCmUMMk"
    },
    {
      "mesh": 35,
      "name": "CcxadAujtCPXuLV"
    },
    {
      "mesh": 36,
      "name": "laYPXJaXKxBTuRW"
    },
    {
      "mesh": 37,
      "name": "snPzrtEiZOaNoBZ"
    },
    {
      "mesh": 38,
      "name": "kOhUjVWqqoHQjNI"
    },
    {
      "mesh": 39,
      "name": "ldZiTGWVpNIZvEF"
    },
    {
      "mesh": 40,
      "name": "hnYcoCKxgDmBJvH"
    },
    {
      "mesh": 41,
      "name": "JIouNTotQkoXojU"
    },
    {
      "mesh": 42,
      "name": "wxOnnlZoqhCsHwI"
    },
    {
      "mesh": 43,
      "name": "oewVWPhxMfJdTyq"
    },
    {
      "mesh": 44,
      "name": "IlKIbpRbYPwAlfo"
    },
    {
      "mesh": 45,
      "name": "QoSihQMHwrLgUhV"
    }
  ],
  "samplers": [
    {
      "magFilter": 9729,
      "minFilter": 9987,
      "wrapS": 10497,
      "wrapT": 10497
    }
  ],
  "scene": 0,
  "scenes": [
    {
      "name": "Sketchfab_Scene",
      "nodes": [
        0
      ]
    }
  ],
  "textures": [
    {
      "sampler": 0,
      "source": 0
    },
    {
      "sampler": 0,
      "source": 1
    },
    {
      "sampler": 0,
      "source": 2
    },
    {
      "sampler": 0,
      "source": 3
    },
    {
      "sampler": 0,
      "source": 4
    },
    {
      "sampler": 0,
      "source": 5
    },
    {
      "sampler": 0,
      "source": 6
    },
    {
      "sampler": 0,
      "source": 7
    },
    {
      "sampler": 0,
      "source": 8
    },
    {
      "sampler": 0,
      "source": 9
    },
    {
      "sampler": 0,
      "source": 10
    },
    {
      "sampler": 0,
      "source": 11
    },
    {
      "sampler": 0,
      "source": 12
    },
    {
      "sampler": 0,
      "source": 13
    },
    {
      "sampler": 0,
      "source": 14
    },
    {
      "sampler": 0,
      "source": 15
    },
    {
      "sampler": 0,
      "source": 16
    },
    {
      "sampler": 0,
      "source": 17
    },
    {
      "sampler": 0,
      "source": 18
    },
    {
      "sampler": 0,
      "source": 19
    },
    {
      "sampler": 0,
      "source": 20
    },
    {
      "sampler": 0,
      "source": 21
    },
    {
      "sampler": 0,
      "source": 22
    },
    {
      "sampler": 0,
      "source": 23
    },
    {
      "sampler": 0,
      "source": 24
    },
    {
      "sampler": 0,
      "source": 25
    },
    {
      "sampler": 0,
      "source": 26
    },
    {
      "sampler": 0,
      "source": 27
    },
    {
      "sampler": 0,
      "source": 28
    },
    {
      "sampler": 0,
      "source": 29
    },
    {
      "sampler": 0,
      "source": 30
    },
    {
      "sampler": 0,
      "source": 31
    },
    {
      "sampler": 0,
      "source": 32
    },
    {
      "sampler": 0,
      "source": 33
    },
    {
      "sampler": 0,
      "source": 34
    }
  ]
}
